<svg width="96" height="21" viewBox="0 0 96 21" fill="none" xmlns="http://www.w3.org/2000/svg">
<path d="M30.5098 6.73419C34.6098 7.63419 38.8098 7.83419 42.8098 8.13419C52.1098 8.93419 61.3098 8.73419 70.6098 8.43419C75.4098 8.23419 80.1098 9.63419 84.9098 8.93419C87.5098 8.63419 90.0098 8.43419 92.6098 8.83419C93.9098 9.03419 94.7098 9.63419 95.2098 10.7342C96.2098 12.9342 95.5098 14.2342 93.0098 14.3342C89.9098 14.5342 86.8098 14.7342 83.7098 14.7342C73.4098 14.5342 63.1098 15.7342 52.8098 15.0342C46.7098 14.6342 40.7098 14.4342 34.6098 14.2342C33.4098 14.2342 32.1098 13.9342 30.8098 14.5342C30.9098 14.9342 31.0098 15.2342 31.1098 15.5342C31.6098 16.7342 32.6098 17.8342 31.4098 19.0342C30.2098 20.3342 28.6098 20.8342 26.8098 20.1342C23.2098 18.6342 19.3098 18.4342 15.7098 16.8342C12.7098 15.5342 9.20977 15.3342 5.80977 15.1342C4.50977 15.0342 3.20977 15.0342 2.00977 14.5342C0.609773 14.0342 0.00977325 12.9342 0.00977325 11.5342C-0.0902267 10.2342 0.509769 9.33419 1.80977 8.83419C2.40977 8.63419 3.00977 8.13419 3.60977 8.23419C6.80977 8.63419 9.70977 7.33419 12.8098 7.13419C17.1098 6.73419 21.1098 5.33419 24.4098 2.33419C24.9098 1.93419 25.4098 1.43419 25.9098 1.13419C28.4098 -0.265807 30.7098 0.934194 30.8098 3.83419C30.9098 4.83419 30.7098 5.73419 30.5098 6.73419Z" fill="#002E2E"/>
</svg>
