<svg width="84" height="86" viewBox="0 0 84 86" fill="none" xmlns="http://www.w3.org/2000/svg">
<path d="M32.2531 22.818C30.9531 22.818 30.9531 22.818 29.4531 21.318C29.2531 20.418 29.3531 19.618 28.9531 19.018C28.0531 17.618 27.9531 16.018 27.5531 14.418C27.4531 14.218 27.5531 13.818 27.4531 13.718C26.5531 12.918 26.5531 11.718 26.0531 10.818C25.9531 10.618 25.7531 10.418 25.7531 10.218C25.8531 8.71803 25.0531 7.51803 24.4531 6.31803C23.7531 4.81803 23.5531 3.01803 22.4531 1.61803L22.7531 0.218034C23.1531 -0.181966 23.5531 0.0180339 24.0531 0.418034C24.8531 1.11803 25.6531 2.11803 26.2531 3.31803C27.0531 5.01803 27.8531 6.81803 28.3531 8.71803C28.8531 10.518 29.7531 12.218 30.1531 14.018C30.8531 14.618 30.4531 15.418 30.6531 16.218C31.2531 18.018 31.6531 19.918 32.3531 21.718C32.3531 22.018 32.2531 22.318 32.2531 22.818Z" fill="#2E2E30"/>
<path d="M82.4516 22.8164C82.6516 23.0164 82.9516 23.4164 83.2516 23.8164C83.0516 24.2164 82.7516 24.7164 82.5516 25.2164C82.3516 25.8164 81.3516 25.4164 81.4516 26.2164C80.7516 26.5164 80.0516 27.0164 79.2516 27.1164C78.5516 27.2164 78.1516 27.6164 77.5516 27.8164C76.2516 28.4164 74.8516 29.0164 73.4516 29.4164C72.1516 29.8164 70.9516 30.4164 69.6516 30.9164C68.2516 31.4164 67.0516 32.2164 65.5516 32.6164C65.1516 32.7164 65.2516 33.5164 64.6516 33.4164C64.4516 33.4164 64.0516 33.7164 63.9516 33.6164C63.6516 33.3164 63.6516 33.4164 63.4516 33.8164C62.7516 34.7164 61.9516 34.7164 60.8516 33.9164C61.9516 33.0164 63.0516 32.0164 64.1516 31.1164C64.6516 30.7164 65.3516 30.9164 65.8516 30.2164C66.1516 29.8164 66.9516 29.6164 67.4516 29.3164C68.0516 29.0164 68.5516 28.8164 69.1516 28.6164C69.7516 28.4164 70.5516 28.0164 71.1516 27.3164C71.2516 27.2164 71.3516 27.1164 71.3516 27.1164C72.6516 27.4164 73.4516 26.4164 74.3516 26.0164C75.5516 25.4164 76.8516 25.0164 78.1516 24.5164C78.7516 24.2164 79.7516 24.2164 79.9516 23.2164C79.9516 23.1164 80.3516 23.1164 80.6516 23.1164C81.2516 23.1164 81.7516 23.0164 82.4516 22.8164Z" fill="#2E2E30"/>
<path d="M21.0501 52.6176C20.4501 53.4176 20.1501 54.1176 19.6501 54.6176C18.7501 55.6176 17.9501 56.6176 16.9501 57.3176C15.9501 58.0176 14.9501 58.7176 13.8501 59.0176C12.6501 59.3176 11.6501 60.0176 10.5501 60.4176C8.15011 61.2176 5.85011 62.3176 3.55011 63.3176C3.25011 63.4176 2.85011 63.5176 2.65011 63.8176C2.05011 64.6176 1.25011 64.4176 0.550113 64.4176C0.150113 63.7176 -0.349887 63.1176 0.350113 62.3176V62.1176C1.55011 61.7176 2.35011 60.5176 3.65011 60.4176C4.35011 60.4176 4.75011 60.1176 5.25011 59.8176C6.05011 59.4176 6.75011 58.7176 7.85011 58.9176C8.15011 58.9176 8.45011 58.7176 8.75011 58.6176C10.6501 57.8176 12.4501 57.0176 14.4501 56.4176C14.9501 56.3176 15.3501 55.9176 15.7501 55.6176C16.8501 54.8176 17.8501 54.0176 18.9501 53.2176C19.1501 53.1176 19.3501 53.0176 19.5501 52.9176C19.7501 52.8176 19.8501 52.8176 20.0501 52.8176C20.2501 52.5176 20.5501 52.6176 21.0501 52.6176Z" fill="#2E2E30"/>
<path d="M49.2469 61.5172C49.5469 61.4172 49.7469 61.3172 50.1469 61.1172C50.1469 61.1172 50.2469 61.1172 50.3469 61.2172C50.8469 61.9172 51.3469 62.6172 51.8469 63.3172C53.3469 65.7172 54.6469 68.1172 56.0469 70.6172C56.5469 71.5172 56.9469 72.4172 57.3469 73.4172C57.7469 74.6172 58.3469 75.7172 58.7469 76.9172C59.1469 78.2172 59.7469 79.4172 60.3469 80.6172C60.6469 81.2172 60.6469 81.7172 60.6469 82.3172C60.6469 82.8172 60.4469 83.3172 61.1469 83.7172C60.7469 83.7172 60.3469 83.9172 60.2469 83.8172C59.7469 83.4172 58.9469 82.9172 58.9469 82.5172C58.9469 81.8172 58.3469 81.5172 58.1469 81.0172C57.9469 80.5172 57.7469 80.0172 57.5469 79.4172C57.0469 77.7172 56.1469 76.1172 55.5469 74.4172C55.1469 73.1172 54.2469 72.0172 53.6469 70.8172C53.2469 69.8172 52.7469 68.8172 52.2469 67.9172C51.7469 66.9172 51.2469 66.0172 50.7469 65.0172C50.4469 64.5172 50.1469 64.2172 49.8469 63.7172C49.3469 62.9172 48.8469 62.3172 49.2469 61.5172Z" fill="#2E2E30"/>
<path d="M48.25 22.0172C47.85 21.7172 47.55 21.4172 47.25 21.2172C47.55 20.1172 47.75 19.1172 47.95 18.1172C48.25 17.1172 48.25 15.9172 48.95 15.0172C48.55 14.0172 49.25 13.3172 49.45 12.4172C49.65 11.5172 50.05 10.6172 50.15 9.61719C50.25 8.71719 50.75 7.81719 51.25 6.91719C51.95 5.81719 52.85 4.71719 53.65 3.71719C53.75 3.51719 53.95 3.41719 54.35 3.11719C54.55 3.81719 54.85 4.31719 54.85 4.81719C54.85 5.31719 54.55 5.91719 54.35 6.41719C54.25 7.01719 53.75 7.41719 53.85 8.01719C53.95 8.71719 52.85 8.91719 53.15 9.71719C52.35 11.0172 52.25 12.6172 51.65 14.0172C51.05 15.4172 50.45 16.7172 49.95 18.1172C49.75 18.7172 49.65 19.3172 49.55 19.9172C49.35 20.8172 48.85 21.4172 48.25 22.0172Z" fill="#2E2E30"/>
<path d="M26.7535 85.3172C26.7535 85.0172 26.7535 84.7172 26.7535 84.4172C26.6535 83.2172 26.5535 83.2172 26.9535 82.4172C27.0535 82.2172 27.1535 82.1172 27.1535 81.9172C27.1535 79.5172 28.6535 77.6172 29.0535 75.3172C29.1535 74.8172 29.6535 74.4172 29.8535 74.0172C30.0535 73.5172 30.0535 72.8172 30.4535 72.4172C30.8535 71.9172 30.8535 71.4172 30.9535 70.9172C31.0535 70.5172 31.3535 70.1172 31.5535 69.7172C31.7535 69.3172 31.9535 68.8172 31.9535 68.4172C31.8535 67.6172 32.1535 67.1172 32.7535 66.7172C32.8535 66.6172 33.1535 66.4172 33.1535 66.3172C33.1535 65.5172 33.2535 64.8172 34.1535 64.5172C34.2535 64.5172 34.1535 64.2172 34.2535 64.0172C34.3535 63.7172 34.5535 63.4172 34.7535 63.1172C35.6535 63.6172 35.5535 63.6172 35.3535 64.5172C35.0535 65.6172 34.8535 66.7172 34.0535 67.6172C33.9535 67.8172 33.9535 68.0172 33.8535 68.3172C33.7535 69.2172 33.7535 69.2172 32.8535 70.6172C32.6535 71.0172 32.7535 71.5172 32.5535 71.9172C31.7535 74.0172 30.8535 76.0172 30.1535 78.1172C29.9535 78.6172 29.7535 78.9172 29.5535 79.3172C29.2535 80.0172 28.8535 80.7172 28.9535 81.4172C28.9535 81.6172 29.0535 81.9172 28.9535 81.9172C28.0535 82.6172 28.4535 83.8172 27.8535 84.5172C27.5535 85.0172 27.0535 85.1172 26.7535 85.3172Z" fill="#2E2E30"/>
<path d="M4.75058 45.6167C4.55058 44.8167 5.35058 44.6167 5.55058 44.2167C6.45058 44.6167 6.65058 43.4167 7.45058 43.4167C7.65058 43.4167 7.85058 43.0167 8.05058 43.1167C9.15058 43.3167 10.1506 42.6167 11.2506 42.7167C11.8506 42.7167 12.3506 42.5167 12.9506 42.4167C13.4506 42.3167 13.9506 42.3167 14.4506 42.2167C15.4506 41.9167 16.4506 42.0167 17.4506 42.2167C17.8506 42.3167 18.1506 42.5167 18.4506 42.1167C18.6506 42.3167 18.8506 42.5167 19.1506 42.7167C18.7506 43.1167 18.4506 43.5167 18.1506 43.9167C16.9506 43.8167 15.6506 44.3167 14.4506 44.5167C12.7506 44.7167 11.1506 45.3167 9.45058 45.4167C8.15058 45.5167 6.75058 45.7167 5.35058 45.7167C5.15058 45.6167 4.95058 45.6167 4.75058 45.6167Z" fill="#2E2E30"/>
<path d="M78.1523 59.8164C77.4523 60.5164 76.7523 60.4164 76.0523 60.1164C74.7523 59.5164 73.3523 58.9164 71.9523 58.4164C70.9523 58.0164 69.9523 57.5164 69.0523 57.0164C68.0523 56.5164 67.2523 55.7164 66.3523 55.1164C65.7523 54.8164 65.0523 54.6164 64.5523 54.3164C63.9523 53.9164 63.3523 53.7164 62.6523 53.6164C61.8523 53.6164 61.7523 53.0164 61.8523 52.3164C62.1523 52.4164 62.4523 52.4164 62.7523 52.6164C63.2523 52.8164 63.6523 53.0164 64.3523 53.0164C64.5523 53.0164 64.8523 52.9164 64.8523 53.0164C65.4523 53.9164 66.5523 53.6164 67.3523 54.1164C68.1523 54.6164 68.9523 55.0164 69.6523 55.5164C69.8523 55.6164 70.0523 55.9164 70.2523 55.9164C71.8523 55.8164 73.0523 57.0164 74.4523 57.2164C75.8523 57.4164 76.5523 58.7164 77.8523 58.9164C77.7523 58.9164 77.9523 59.4164 78.1523 59.8164Z" fill="#2E2E30"/>
<path d="M65.2516 14.8164C65.2516 15.6164 65.4516 16.3164 64.4516 16.6164C63.9516 16.7164 64.3516 17.3164 64.1516 17.5164C63.3516 18.4164 62.5516 19.4164 61.6516 20.2164C60.9516 20.9164 60.2516 21.4164 59.5516 22.1164C59.3516 22.2164 59.4516 22.7164 59.2516 22.7164C58.4516 22.9164 58.0516 23.7164 57.4516 24.1164C56.7516 24.7164 56.2516 24.7164 55.3516 24.1164C55.7516 23.6164 55.6516 22.8164 56.5516 22.7164C56.6516 22.7164 56.6516 22.1164 56.7516 21.9164C56.8516 21.7164 57.3516 21.6164 57.3516 21.5164C57.5516 20.8164 58.2516 20.5164 58.5516 20.0164C58.8516 19.4164 59.3516 19.1164 59.8516 18.7164C60.7516 18.0164 61.2516 16.9164 62.2516 16.3164C62.1516 15.5164 63.0516 15.8164 63.3516 15.5164C63.9516 15.1164 64.6516 15.0164 65.2516 14.8164Z" fill="#2E2E30"/>
<path d="M23.15 34.0194C21.75 34.6194 20.65 33.9194 19.75 33.3194C18.45 32.4194 17.05 31.9194 15.65 31.3194C15.45 31.2194 15.25 31.4194 15.15 31.3194C14.45 30.7194 13.45 30.7194 12.95 29.9194C12.15 29.9194 11.45 29.6194 10.65 29.2194C10.05 28.9194 9.55 28.3194 8.55 28.3194C7.95 28.3194 7.55 27.4194 6.75 26.7194C7.45 26.6194 7.85 26.4194 8.15 26.5194C9.45 26.8194 10.75 27.3194 11.95 28.0194C12.45 28.3194 12.95 28.7194 13.65 28.7194C14.45 28.7194 15.05 29.6194 15.95 29.4194C16.75 30.1194 17.85 30.2194 18.65 30.8194C19.45 31.4194 20.55 31.6194 21.25 32.5194C21.55 32.8194 22.05 32.8194 22.45 33.1194C22.75 33.3194 22.85 33.7194 23.15 34.0194Z" fill="#2E2E30"/>
<path d="M73.9516 42.2198C73.2516 43.1198 72.7516 43.6198 71.8516 43.4198C70.4516 44.2198 68.7516 43.2198 67.3516 44.1198C67.0516 43.2198 66.3516 44.3198 65.7516 43.8198C65.4516 43.5198 64.5516 43.7198 63.9516 43.7198C63.7516 43.1198 63.5516 42.6198 63.3516 42.0198C64.0516 41.9198 64.7516 41.8198 65.2516 41.7198C65.9516 41.5198 66.6516 41.6198 67.3516 41.5198C68.0516 41.4198 68.8516 41.2198 69.5516 41.1198C70.7516 41.0198 71.8516 41.2198 73.0516 41.5198C73.3516 41.6198 73.5516 41.9198 73.9516 42.2198Z" fill="#2E2E30"/>
<path d="M20.75 69.8187C20.85 69.1187 20.85 68.7187 20.95 68.4187C21.85 66.7187 22.95 65.2187 23.75 63.5187C24.05 62.8187 24.15 62.1187 24.65 61.5187C25.05 60.9187 25.55 60.4187 25.95 59.8187C26.05 59.7187 26.05 59.5188 26.15 59.2188C26.65 59.2188 27.25 59.2188 27.85 59.2188C28.15 60.0188 27.65 60.5187 27.35 61.0187C26.65 62.1187 26.05 63.1187 25.75 64.4187C25.65 64.8187 25.35 65.2188 25.05 65.6188C24.65 66.2188 24.25 66.7187 24.25 67.5187C24.25 68.1187 24.15 68.0187 22.95 68.5187C22.25 68.6187 21.75 69.1187 20.75 69.8187Z" fill="#2E2E30"/>
<path d="M41.6531 19.8164C40.4531 19.8164 40.3531 19.7164 40.3531 18.7164C40.3531 17.8164 40.5531 16.9164 39.9531 16.1164C40.3531 15.7164 39.9531 15.2164 40.2531 14.8164C39.7531 14.4164 40.0531 13.8164 40.0531 13.3164C39.9531 12.7164 40.0531 12.1164 40.0531 11.5164C40.0531 10.4164 40.6531 9.41641 40.4531 8.41641C40.4531 8.31641 40.7531 8.11641 41.0531 7.81641C41.2531 8.11641 41.4531 8.41641 41.5531 8.71641C41.7531 9.81641 41.1531 11.0164 41.9531 12.0164C41.3531 12.5164 41.5531 13.2164 41.6531 13.9164C41.7531 14.7164 42.3531 15.5164 41.7531 16.4164C42.3531 17.0164 41.7531 18.0164 42.3531 18.7164C42.2531 18.7164 41.8531 19.4164 41.6531 19.8164Z" fill="#2E2E30"/>
<path d="M43.8486 65.3164C44.2486 66.2164 45.3486 66.8164 44.4486 67.8164C45.1486 68.5164 44.9486 69.5164 44.7486 70.2164C44.5486 71.0164 44.9486 71.6164 44.8486 72.3164C44.7486 73.1164 44.8486 74.0164 44.8486 74.8164C44.8486 75.1164 44.8486 75.4164 44.7486 75.8164C43.9486 75.4164 43.5486 75.1164 43.2486 74.3164C42.8486 72.9164 42.9486 71.5164 42.9486 70.1164C42.9486 69.7164 43.3486 69.1164 43.1486 68.9164C42.8486 68.5164 43.4486 68.1164 42.9486 67.8164C43.4486 67.5164 43.2486 67.1164 43.2486 66.7164C43.3486 66.2164 43.5486 65.8164 43.8486 65.3164Z" fill="#2E2E30"/>
<path d="M25.8469 26.0195C24.3469 25.4195 23.3469 25.3195 22.6469 24.3195C22.4469 24.0195 21.9469 23.8195 21.6469 23.6195C20.6469 23.1195 19.6469 22.7195 18.9469 21.8195C18.7469 21.5195 18.7469 21.1195 18.5469 20.5195C19.5469 21.1195 20.2469 21.7195 21.0469 22.1195C21.8469 22.5195 22.6469 22.6195 23.3469 23.2195C23.9469 23.7195 24.7469 24.1195 25.3469 24.6195C25.5469 24.7195 25.5469 25.2195 25.8469 26.0195Z" fill="#2E2E30"/>
<path d="M64.4484 64.2195C63.5484 63.9195 62.4484 64.1195 62.1484 62.8195C62.1484 62.6195 61.7484 62.4195 61.5484 62.4195C60.5484 62.3195 59.8484 61.7195 59.2484 60.9195C58.7484 60.3195 57.7484 60.1195 57.6484 59.0195C58.9484 59.6195 60.0484 60.5195 61.3484 61.2195C62.7484 61.9195 63.4484 63.3195 64.4484 64.2195Z" fill="#2E2E30"/>
<path d="M28.45 58.418C28.45 58.618 28.45 58.918 28.45 59.118C28.35 59.118 28.35 59.118 28.25 59.118C28.25 58.918 28.25 58.618 28.25 58.418C28.35 58.418 28.45 58.418 28.45 58.418Z" fill="#2E2E30"/>
<path d="M26.7531 85.4164C26.6531 85.5164 26.6531 85.5164 26.5531 85.6164C26.5531 85.5164 26.4531 85.4164 26.4531 85.4164C26.5531 85.3164 26.6531 85.3164 26.7531 85.3164V85.4164Z" fill="#2E2E30"/>
</svg>
