<svg width="21" height="23" viewBox="0 0 21 23" fill="none" xmlns="http://www.w3.org/2000/svg">
<path fill-rule="evenodd" clip-rule="evenodd" d="M2.4985 12.8498C2.32398 13.1743 2.16608 13.4608 2.02478 13.7101C1.72558 14.2505 1.50559 14.687 1.36404 15.0196C1.24778 15.3188 1.17317 15.5393 1.13995 15.6806C1.0817 15.9384 1.06943 16.117 1.10265 16.2169V16.2542L1.12743 16.2793L1.14021 16.3043L1.17751 16.3542L1.40211 16.566C1.55158 16.6991 1.75905 16.8404 2.02504 16.9901C2.29102 17.1646 2.777 17.4306 3.48323 17.7881L4.67978 18.4115L6.53708 19.8958C7.10201 20.3695 7.58824 20.7354 7.99553 20.9929C8.61846 21.3836 9.15043 21.6373 9.59067 21.7538C10.1722 21.8954 10.6584 21.8246 11.0491 21.542C11.4311 21.2507 11.8215 20.7773 12.2206 20.1204C12.4117 19.8045 12.6317 19.3973 12.8811 18.8985C12.773 18.8569 12.6486 18.8027 12.5073 18.7363C12.0088 18.4703 11.4022 18.1752 10.6876 17.8507C9.61571 17.377 9.0633 17.1317 9.02983 17.1148L7.60894 16.3792C7.33478 16.2044 7.13139 16.0756 6.99827 15.9923C6.6656 15.7764 6.487 15.6558 6.46221 15.6308C5.6313 15.0155 5.05794 14.5919 4.74213 14.3586L2.4985 12.8498ZM7.11019 6.83898L7.50929 6.21554C7.80849 5.76661 7.97023 5.52541 7.99527 5.49219L8.56838 4.71902C8.74315 4.51129 8.91332 4.47373 9.0794 4.60685C9.1793 4.69015 9.22069 4.7898 9.20409 4.90605C9.18748 4.98935 9.15426 5.05987 9.10418 5.11813L8.53082 5.8913C8.51447 5.90791 8.35222 6.13659 8.04484 6.57734L6.38735 9.10867C6.22127 9.36674 6.09249 9.54534 6.00102 9.64524L5.90112 9.73263C5.85947 9.6828 5.92181 9.42474 6.08789 8.9592C6.10425 8.89277 6.1832 8.67686 6.32475 8.31097L6.79847 7.40059C6.90655 7.19261 7.01054 7.00557 7.11019 6.83898ZM13.5041 5.61714C13.0472 5.24307 12.6938 4.96048 12.4447 4.7691C12.0126 4.42825 11.6097 4.14131 11.2359 3.90854C10.6957 3.5843 10.2179 3.37632 9.80274 3.2851C9.2373 3.17702 8.72654 3.25189 8.26969 3.50969C7.80415 3.76725 7.33478 4.18705 6.86107 4.7691C6.47882 5.22646 6.06336 5.82078 5.61469 6.5523C5.0748 7.46677 4.31875 8.97989 3.34628 11.0917C3.05525 11.7151 2.78952 12.2678 2.54858 12.7502L2.91012 12.8501C2.9183 12.8501 3.19681 12.9791 3.74513 13.2367C3.81999 13.2699 4.01111 13.3782 4.31875 13.5612L6.7862 15.1573C7.74155 15.7724 8.58524 16.2297 9.31651 16.5292C9.65685 16.6868 10.2054 16.9239 10.9615 17.2397C11.6843 17.5556 12.3078 17.855 12.8308 18.1376C12.9555 18.2127 13.0636 18.2832 13.155 18.3497C13.1632 18.3165 13.176 18.2832 13.1923 18.2498C13.7159 17.1358 14.0442 16.4541 14.1771 16.2047C14.5095 15.6392 14.9415 14.9785 15.4733 14.2219C15.7806 13.7896 16.2459 13.145 16.8694 12.289L18.452 10.1067C18.5519 9.97357 18.6434 9.86575 18.7262 9.78219C18.5764 9.65751 18.5269 9.44134 18.5764 9.13371V9.12119C18.2859 8.73895 17.7458 8.29411 16.9562 7.78692C16.4496 7.47929 15.9508 7.18417 15.4605 6.90133L14.5133 6.36501C14.3472 6.26562 14.011 6.01624 13.5041 5.61714ZM12.8934 0.940548C12.3949 0.948979 11.9337 1.01976 11.5101 1.15262L10.4132 1.58903L9.56563 2.07552C9.40773 2.17542 9.22069 2.29986 9.00504 2.44959H9.01731C9.13382 2.43298 9.30833 2.43707 9.54085 2.46185C9.81526 2.5035 9.9816 2.53237 10.0393 2.54923C10.5631 2.69896 11.1071 2.96495 11.6723 3.34745C12.0545 3.60525 12.4657 3.92106 12.9062 4.29513C13.1555 4.51129 13.5002 4.81049 13.9407 5.19299L15.7479 6.50248C16.2546 6.83489 16.7408 7.16757 17.2061 7.50024C17.8791 8.00717 18.3569 8.4561 18.6393 8.84703C18.6728 8.73052 18.7144 8.58922 18.764 8.42314C18.8138 8.3148 18.8968 8.06568 19.0133 7.67475C19.08 7.47546 19.1339 7.234 19.1753 6.95141C19.217 6.53595 19.2377 6.30292 19.2377 6.2531L19.2004 5.57958C19.1173 4.82327 18.7599 4.09967 18.1285 3.40953C17.6883 2.92739 17.0899 2.46185 16.3338 2.01292C15.6031 1.60538 14.9962 1.32279 14.5143 1.16488C13.9402 1.00698 13.4001 0.932371 12.8934 0.940548ZM0.0182685 16.3915C-0.023124 16.1091 0.00574828 15.7639 0.105652 15.3566C0.163909 15.1402 0.263302 14.8702 0.404854 14.5459C0.562503 14.1966 0.807537 13.727 1.14021 13.1365C1.49716 12.5297 1.93357 11.686 2.44893 10.6052C3.44593 8.51819 4.2518 6.98871 4.86656 6.01599C5.34027 5.2676 5.79738 4.64416 6.23762 4.1454C6.49518 3.8462 6.76142 3.5843 7.03532 3.35971C7.31792 3.11033 7.62121 2.90669 7.94545 2.74853C7.97023 2.74036 8.01597 2.72349 8.0824 2.69871C8.10744 2.65706 8.13657 2.6195 8.16978 2.58654C8.49403 2.22908 8.8428 1.89232 9.21686 1.57651C9.86509 1.04428 10.5506 0.641091 11.2732 0.366929C11.7469 0.183984 12.2789 0.063384 12.8689 0.00512786C13.5337 -0.0199121 14.1817 0.0467758 14.813 0.204681C15.3445 0.337801 16.0344 0.624482 16.8819 1.06524C17.7545 1.55581 18.4522 2.07961 18.9758 2.63662C19.1171 2.77792 19.2001 2.8653 19.2252 2.89852L19.4495 3.19772C19.5739 3.34719 19.7114 3.5677 19.8609 3.85872C19.9107 3.93333 19.969 4.05393 20.0354 4.22027L20.3471 5.20551L20.4342 5.84147V6.27788C20.4424 6.3944 20.4342 6.53978 20.4095 6.71429L20.3596 7.13844C20.2929 7.52068 20.2308 7.80762 20.1726 7.99874C20.0397 8.43949 19.9439 8.72209 19.8859 8.84677C19.8113 9.08772 19.6741 9.32049 19.4748 9.54508C19.4334 9.59465 19.392 9.64064 19.3504 9.68229C19.3585 9.76507 19.3504 9.87341 19.3251 10.0065C19.3169 10.0648 19.2755 10.2311 19.2006 10.5053C19.1756 10.5883 19.101 10.7756 18.9763 11.0664L18.3779 12.1761C18.245 12.4173 18.0664 12.6873 17.8421 12.9868C17.2105 13.8596 16.7452 14.504 16.446 14.9195C15.9225 15.6594 15.5152 16.2872 15.2247 16.8026C15.1914 16.869 14.8715 17.5303 14.265 18.7856C13.8492 19.642 13.5046 20.2984 13.2304 20.7558C12.9394 21.1966 12.7194 21.508 12.5697 21.691C12.3121 22.0155 12.0213 22.2937 11.6973 22.5267C11.3401 22.7846 10.9329 22.9381 10.4758 22.9882C10.0856 23.0217 9.68265 22.9839 9.2672 22.876C8.70201 22.7266 8.05838 22.4189 7.33504 21.9534C6.81993 21.6044 6.29639 21.2053 5.76467 20.7561C5.13306 20.2159 4.66777 19.8247 4.36832 19.5838L4.2191 19.4594L2.92264 18.7608C2.31632 18.4616 1.80505 18.1749 1.38984 17.9005C1.12386 17.7426 0.87448 17.5637 0.641967 17.3642L0.280421 16.9901L0.243117 16.9403L0.118684 16.7032C0.0931326 16.6618 0.059661 16.5578 0.0182685 16.3915Z" fill="#2E2E30"/>
</svg>
