<svg width="84" height="96" viewBox="0 0 84 96" fill="none" xmlns="http://www.w3.org/2000/svg">
<path d="M8.4633 70.7577C11.8633 70.1577 14.7633 69.7577 17.7633 69.8577C18.4633 69.8577 19.0633 69.3577 18.9633 68.5577C18.7633 66.9577 19.5633 65.2577 18.4633 63.8577C18.0633 63.2577 19.4633 62.6577 18.3633 62.0577C19.4633 61.1577 18.8633 59.8577 18.8633 58.7577C18.9633 57.6577 19.1633 56.4577 18.3633 55.4577C18.1633 55.1577 18.3633 54.5577 18.3633 54.0577C18.3633 50.6577 18.3633 47.2577 18.3633 43.8577C18.3633 43.0577 19.0633 42.0577 18.7633 41.5577C18.1633 40.6577 18.5633 39.8577 18.3633 39.0577C18.1633 38.1577 18.3633 37.2577 17.8633 36.3577C17.3633 35.2577 17.8633 33.8577 18.1633 32.5577C18.5633 30.6577 18.2633 28.5577 18.2633 26.2577C16.8633 26.0577 15.2633 26.4577 14.0633 25.2577C13.8633 25.0577 13.5633 25.0577 13.2633 25.0577C11.1633 24.8577 9.1633 24.7577 7.0633 24.4577C5.5633 24.2577 3.7633 24.0577 2.7633 23.1577C1.5633 22.1577 0.363299 20.7577 0.163299 19.0577C-0.0367008 17.6577 -0.2367 16.0577 0.7633 14.9577C1.5633 14.0577 1.1633 13.1577 1.2633 12.2577C1.4633 10.6577 1.6633 9.15767 2.9633 7.95767C3.3633 7.55767 3.6633 6.95767 3.9633 6.35767C5.0633 4.35767 6.1633 2.25767 8.8633 2.35767C9.0633 2.35767 9.3633 2.05767 9.5633 1.95767C11.5633 0.65767 12.2633 0.45767 14.6633 0.65767C15.9633 0.75767 17.1633 0.65767 18.4633 0.65767C19.1633 0.65767 19.9633 0.35767 20.6633 1.05767C20.7633 1.15767 21.2633 1.05767 21.6633 0.95767C21.9633 0.85767 22.1633 0.65767 22.3633 0.65767C22.9633 0.65767 23.6633 0.55767 24.2633 1.05767C24.5633 1.25767 25.3633 0.65767 25.9633 0.65767C26.5633 0.55767 27.6633 0.55767 27.8633 0.85767C28.3633 1.85767 29.0633 -0.0423298 29.4633 1.05767C29.5633 1.25767 30.1633 1.25767 30.5633 1.15767C33.8633 0.85767 37.2633 1.75767 40.5633 0.65767C41.4633 1.35767 42.4633 1.15767 43.4633 1.15767C44.4633 1.05767 45.5633 1.55767 46.4633 0.65767C46.5633 0.55767 47.0633 0.85767 47.4633 0.95767C47.9633 1.05767 48.7633 1.35767 49.0633 1.15767C50.4633 0.25767 52.0633 0.45767 53.4633 0.75767C54.6633 0.95767 55.3633 -0.14233 56.6633 0.25767C57.6633 0.65767 58.8633 0.55767 59.9633 0.65767C60.6633 0.75767 61.5633 0.35767 62.0633 1.15767C62.1633 1.25767 62.4633 1.25767 62.5633 1.25767C64.4633 0.25767 66.6633 1.15767 68.6633 0.45767C69.5633 0.15767 70.3633 1.25767 71.3633 0.25767C72.1633 -0.54233 73.1633 0.75767 74.0633 0.95767C74.2633 1.05767 74.5633 0.75767 74.8633 0.65767C75.9633 0.65767 76.7633 0.55767 77.5633 1.85767C78.8633 3.85767 79.7633 6.05767 80.9633 8.05767C81.6633 9.25767 81.7633 11.6577 81.5633 13.7577C81.5633 13.9577 81.6633 14.2577 81.7633 14.5577C81.8633 14.8577 82.1633 15.3577 82.0633 15.5577C80.8633 17.7577 81.9633 19.7577 82.5633 21.8577C82.8633 22.7577 82.7633 23.7577 82.5633 24.7577C81.9633 27.9577 81.8633 27.9577 82.6633 31.2577C82.7633 31.8577 81.5633 32.1577 82.4633 32.9577C82.8633 33.2577 82.7633 34.1577 82.0633 34.7577C81.8633 34.9577 82.0633 35.4577 81.9633 35.8577C81.6633 37.9577 82.6633 40.2577 81.3633 42.3577C82.6633 44.4577 81.5633 46.6577 81.9633 48.7577C81.9633 49.0577 82.0633 49.3577 82.1633 49.5577C83.0633 50.4577 82.7633 51.4577 82.5633 52.4577C82.4633 52.9577 82.4633 53.4577 82.5633 53.8577C82.7633 54.8577 84.0633 55.3577 83.3633 56.7577C82.8633 57.7577 83.1633 59.1577 83.0633 60.4577C82.9633 61.5577 83.4633 62.7577 82.6633 63.7577C83.6633 65.6577 81.5633 67.0577 81.9633 68.7577C81.1633 69.5577 82.2633 70.4577 81.8633 71.1577C81.4633 71.8577 81.8633 72.6577 81.4633 73.3577C82.5633 73.9577 80.8633 74.2577 81.2633 74.9577C81.5633 75.3577 81.2633 76.0577 81.3633 76.6577C81.3633 77.3577 80.9633 77.8577 80.8633 78.4577C80.5633 79.6577 80.6633 80.9577 80.2633 82.2577C79.7633 83.9577 79.8633 85.7577 79.5633 87.5577C79.4633 88.1577 79.3633 88.9577 78.9633 89.3577C76.8633 91.6577 74.9633 93.9577 71.5633 94.5577C69.7633 94.8577 68.0633 94.8577 66.2633 95.0577C63.8633 95.3577 61.2633 94.3577 58.9633 95.6577C58.4633 94.8577 57.5633 95.2577 56.8633 95.0577C54.7633 94.2577 52.7633 94.1577 50.6633 95.0577C50.4633 95.1577 49.9633 95.1577 49.7633 95.0577C48.1633 93.4577 46.1633 94.8577 44.1633 95.1577C42.8633 95.4577 41.6633 95.7577 40.3633 95.0577C40.1633 94.9577 39.8633 94.9577 39.5633 94.8577C38.4633 94.6577 37.3633 95.0577 36.1633 94.5577C35.6633 94.3577 34.4633 95.5577 33.8633 95.3577C32.9633 94.9577 32.1633 94.7577 31.2633 95.0577L26.5633 94.6577C24.6633 93.9577 22.7633 94.1577 20.9633 94.4577C18.6633 94.7577 18.7633 94.9577 16.4633 94.3577C15.9633 94.2577 15.3633 94.2577 14.7633 94.2577C12.8633 94.1577 10.7633 94.7577 9.1633 93.0577C7.6633 93.2577 6.8633 91.9577 6.5633 91.1577C6.0633 89.7577 4.9633 88.7577 4.7633 87.2577C4.6633 85.9577 4.6633 84.5577 4.4633 83.2577C4.2633 82.1577 3.3633 81.0577 4.4633 79.9577C4.6633 79.7577 4.4633 79.0577 4.4633 78.5577C4.6633 77.0577 4.8633 75.6577 5.0633 74.1577C5.8633 73.9577 5.2633 72.8577 6.4633 72.6577C7.2633 72.5577 7.9633 71.2577 8.4633 70.7577ZM19.5633 89.5577C20.6633 89.4577 21.9633 90.2577 22.8633 89.1577C24.4633 89.4577 26.1633 88.5577 27.5633 89.7577C29.8633 89.4577 32.2633 90.1577 34.6633 89.2577C35.9633 88.8577 37.5633 89.0577 39.0633 89.5577C40.9633 90.0577 43.1633 90.0577 45.0633 89.6577C46.6633 89.2577 48.0633 89.6577 49.5633 89.6577C52.6633 89.5577 55.5633 90.4577 58.6633 90.3577C59.7633 90.2577 60.7633 90.8577 61.9633 90.4577C63.1633 90.0577 64.4633 90.4577 65.7633 90.3577C66.4633 90.3577 67.0633 91.1577 67.9633 90.4577C68.3633 90.1577 69.4633 90.7577 70.1633 90.7577C70.9633 90.7577 71.7633 90.3577 72.4633 90.1577C73.0633 88.7577 73.9633 87.7577 75.5633 87.2577C75.5633 86.6577 75.4633 85.9577 75.5633 85.3577C75.6633 84.5577 76.4633 83.7577 75.5633 82.8577C75.3633 82.6577 75.7633 82.0577 75.8633 81.5577C75.9633 81.1577 76.1633 80.6577 76.0633 80.5577C75.1633 79.7577 75.9633 78.9577 76.1633 78.4577C76.6633 77.2577 76.6633 76.0577 76.6633 74.8577C76.6633 73.8577 76.8633 72.8577 76.2633 71.9577C77.1633 71.0577 76.6633 69.9577 76.6633 68.9577C76.7633 67.7577 76.6633 66.5577 77.4633 65.5577C77.7633 65.1577 77.9633 64.8577 77.6633 64.3577C77.3633 63.9577 77.3633 63.2577 77.2633 62.7577C76.9633 61.3577 77.7633 60.2577 77.8633 58.9577C77.9633 56.9577 77.8633 54.8577 77.8633 52.8577C77.8633 52.4577 77.8633 51.7577 77.5633 51.5577C76.6633 50.8577 76.6633 49.9577 76.7633 48.9577C76.7633 48.1577 76.7633 47.3577 76.7633 46.6577C76.7633 45.7577 76.7633 44.9577 76.7633 44.0577C76.7633 43.3577 77.0633 42.4577 76.1633 41.9577C77.4633 41.2577 76.1633 40.5577 76.1633 39.8577C76.1633 39.3577 76.2633 38.7577 76.3633 38.2577C76.4633 37.9577 76.5633 37.3577 76.5633 37.2577C75.4633 36.9577 77.0633 36.2577 76.3633 35.7577C75.8633 35.3577 75.9633 34.5577 76.5633 34.0577C77.3633 33.2577 75.8633 32.8577 76.1633 32.0577C76.3633 31.4577 76.1633 30.7577 76.1633 30.0577C76.1633 29.2577 76.4633 28.2577 76.0633 27.7577C75.4633 26.9577 75.8633 26.3577 76.1633 25.8577C76.8633 24.6577 76.7633 23.6577 76.3633 22.4577C75.9633 21.0577 75.0633 19.5577 75.6633 18.1577C76.0633 17.2577 75.9633 16.5577 76.0633 15.7577C76.3633 13.5577 75.7633 11.4577 75.4633 9.35767C75.1633 7.85767 74.7633 6.75767 73.0633 6.35767C71.2633 5.95767 69.6633 5.75767 67.8633 6.25767C67.5633 6.35767 67.0633 6.45767 66.8633 6.35767C66.0633 5.65767 65.3633 5.95767 64.5633 6.45767C64.0633 6.85767 63.0633 7.15767 62.5633 7.05767C59.4633 6.05767 56.3633 5.75767 53.1633 5.85767C52.6633 5.85767 52.0633 5.65767 51.5633 5.55767C51.3633 5.55767 51.1633 5.55767 50.9633 5.65767C50.0633 5.95767 49.4633 5.95767 48.0633 5.85767C47.2633 5.85767 46.3633 5.45767 45.5633 6.25767C45.3633 6.45767 44.5633 6.45767 44.5633 6.35767C43.9633 5.15767 42.9633 7.05767 42.1633 6.05767C41.3633 5.05767 40.5633 6.55767 39.6633 6.35767C38.7633 6.15767 37.8633 6.65767 36.8633 5.95767C36.3633 5.65767 35.4633 5.95767 34.7633 6.05767C34.4633 6.05767 34.1633 6.45767 34.0633 6.35767C31.7633 5.15767 29.3633 6.05767 27.0633 5.75767C26.5633 5.65767 25.9633 5.85767 25.6633 5.55767C24.6633 4.75767 23.6633 5.35767 22.8633 5.15767C21.8633 6.25767 24.0633 7.35767 22.6633 8.25767C23.7633 9.35767 22.8633 10.7577 23.3633 11.9577C23.9633 13.5577 23.9633 15.0577 23.7633 16.8577C23.7633 17.1577 23.6633 17.5577 23.8633 17.6577C24.5633 18.1577 23.6633 18.9577 24.2633 19.6577C24.6633 20.1577 24.2633 21.3577 24.3633 22.2577C24.4633 23.2577 24.0633 24.2577 24.8633 25.2577C25.2633 25.7577 24.8633 26.8577 24.6633 27.7577C24.6633 28.0577 24.2633 28.5577 24.3633 28.7577C25.5633 30.9577 24.6633 33.0577 24.1633 35.2577C24.0633 35.5577 23.7633 35.8577 23.5633 36.1577C24.0633 36.7577 24.5633 37.2577 25.0633 37.8577C23.9633 38.7577 24.1633 39.7577 24.4633 40.7577C24.6633 41.4577 24.9633 42.4577 24.6633 42.8577C23.9633 43.7577 24.6633 44.9577 24.1633 45.5577C23.4633 46.3577 24.1633 47.1577 23.9633 47.6577C23.6633 48.4577 24.8633 49.3577 23.7633 49.9577C24.6633 50.6577 24.1633 51.5577 24.2633 52.3577C24.3633 53.3577 23.9633 54.4577 24.3633 55.2577C24.7633 56.1577 24.2633 56.7577 24.2633 57.4577C24.3633 58.4577 23.8633 59.4577 24.7633 60.4577C25.1633 60.8577 24.5633 61.6577 24.2633 62.2577C24.0633 62.7577 24.2633 63.5577 24.4633 64.1577C24.6633 64.8577 23.9633 65.6577 24.6633 66.2577C23.7633 66.9577 24.1633 68.0577 24.1633 68.9577C24.0633 69.9577 24.1633 70.8577 24.1633 71.8577C24.1633 72.0577 24.2633 72.2577 24.1633 72.4577C23.1633 73.9577 23.3633 75.5577 23.4633 77.2577C23.5633 78.9577 22.9633 80.6577 22.3633 82.2577C22.0633 83.0577 22.0633 83.8577 21.7633 84.6577C21.2633 86.3577 21.3633 88.4577 19.4633 90.0577C19.4633 89.9577 19.4633 89.8577 19.4633 89.7577C19.4633 89.7577 19.2633 89.7577 19.1633 89.8577C19.1633 89.8577 19.2633 90.0577 19.2633 90.2577C19.3633 90.1577 19.4633 90.0577 19.5633 89.5577ZM8.6633 18.1577C10.1633 16.6577 10.5633 15.1577 10.2633 13.4577C10.0633 11.8577 10.8633 11.0577 12.2633 10.4577C12.7633 11.0577 13.2633 11.5577 13.7633 11.9577C14.9633 13.2577 14.9633 14.1577 15.0633 16.2577C15.0633 18.2577 14.0633 19.8577 13.2633 21.6577C14.2633 21.4577 15.0633 21.0577 15.8633 21.1577C16.6633 21.1577 17.5633 21.5577 18.3633 21.7577C18.9633 20.2577 18.0633 18.9577 18.3633 17.7577C17.4633 17.1577 19.0633 16.7577 18.5633 16.1577C18.2633 15.6577 18.0633 14.9577 17.9633 14.3577C17.8633 13.7577 17.4633 13.2577 17.8633 12.4577C18.2633 11.4577 18.2633 10.0577 17.3633 8.95767C17.9633 6.95767 16.5633 6.05767 15.1633 5.25767C14.9633 5.15767 14.7633 4.95767 14.5633 5.05767C13.6633 5.25767 12.8633 5.65767 11.9633 5.85767C9.3633 6.55767 8.1633 8.55767 6.8633 10.6577C6.6633 11.0577 5.8633 11.6577 6.8633 12.1577C6.6633 13.6577 7.2633 15.1577 6.4633 16.6577C5.9633 17.5577 6.7633 17.9577 7.2633 18.1577C7.5633 18.2577 8.2633 18.1577 8.6633 18.1577ZM14.7633 89.9577C15.5633 88.4577 16.0633 87.3577 16.6633 86.2577C16.9633 85.5577 17.4633 84.9577 17.2633 84.1577C16.9633 82.9577 17.4633 81.7577 17.8633 80.6577C18.0633 79.8577 18.7633 79.1577 17.9633 78.1577C17.6633 77.7577 17.8633 76.8577 17.9633 76.1577C18.0633 75.4577 18.3633 74.8577 18.6633 73.9577C17.4633 74.3577 16.5633 74.6577 15.5633 74.8577C16.6633 75.9577 17.1633 77.3577 16.6633 78.4577C16.0633 80.0577 16.3633 81.5577 15.6633 82.8577C14.5633 83.9577 13.5633 85.0577 12.3633 86.2577C11.8633 86.1577 11.1633 85.8577 9.8633 85.5577C10.5633 86.8577 11.1633 87.5577 11.4633 88.3577C12.0633 89.7577 13.8633 88.4577 14.7633 89.9577ZM9.7633 76.3577C9.7633 78.8577 9.7633 81.3577 9.7633 83.8577C11.4633 81.9577 12.5633 79.7577 11.9633 78.4577C11.5633 77.6577 11.4633 76.1577 9.7633 76.3577Z" fill="#2E2E30"/>
<path d="M31.2656 63.8578C31.5656 63.3578 31.8656 62.9578 32.2656 62.4578C32.8656 63.5578 33.1656 62.0578 33.8656 62.2578C34.4656 62.4578 35.2656 62.4578 36.0656 61.9578C36.9656 61.4578 38.0656 60.4578 39.2656 61.6578C39.4656 61.8578 40.1656 61.7578 40.3656 61.5578C41.0656 60.5578 41.8656 61.2578 42.2656 61.6578C43.0656 62.5578 43.8656 61.2578 44.6656 61.8578C45.4656 62.4578 46.2656 62.0578 47.2656 61.8578C49.6656 61.3578 52.0656 61.2578 54.5656 61.0578C55.6656 61.8578 57.0656 61.9578 58.0656 61.5578C60.4656 60.6578 62.7656 61.1578 65.1656 61.0578C66.1656 61.0578 67.1656 61.2578 68.0656 61.6578C68.5656 61.8578 68.8656 62.6578 69.4656 63.4578C67.9656 64.5578 66.5656 65.5578 64.6656 64.9578C62.5656 64.2578 60.3656 64.5578 58.2656 64.7578C57.9656 65.6578 57.1656 63.9578 56.8656 65.0578C56.3656 64.8578 55.8656 64.7578 55.3656 64.5578C54.4656 64.1578 53.5656 63.4578 52.5656 64.5578C52.3656 64.7578 51.8656 64.5578 51.4656 64.5578C49.7656 64.6578 48.0656 64.2578 46.4656 65.0578C45.8656 65.3578 44.9656 65.2578 44.4656 64.5578C43.9656 65.2578 43.0656 65.3578 42.6656 65.0578C41.4656 63.9578 39.7656 65.1578 38.7656 63.9578C37.5656 64.9578 36.1656 64.3578 34.9656 64.5578C33.4656 64.8578 32.3656 64.4578 31.2656 63.8578Z" fill="#2E2E30"/>
<path d="M32.6672 53.6568C32.3672 53.0568 32.1672 52.5568 31.8672 52.0568C32.5672 51.8568 33.4672 51.3568 33.9672 51.5568C34.7672 51.8568 35.1672 51.1568 35.9672 51.2568C36.6672 51.3568 37.7672 50.5568 38.2672 50.8568C40.0672 51.7568 42.1672 50.7568 43.9672 51.9568C44.5672 52.3568 45.0672 52.3568 45.8672 52.0568C46.5672 51.7568 47.3672 52.0568 48.1672 51.9568C49.0672 51.8568 49.9672 52.1568 50.8672 51.4568C51.3672 51.0568 52.3672 52.5568 53.2672 51.4568C53.4672 51.1568 54.3672 51.3568 54.8672 51.5568C57.3672 52.1568 57.5672 52.0568 60.5672 51.5568C62.5672 51.2568 64.5672 51.3568 66.6672 51.4568C67.8672 51.4568 68.9672 51.7568 69.9672 51.9568C70.4672 53.1568 70.0672 53.8568 69.2672 54.3568C68.6672 54.1568 67.9672 53.6568 67.4672 53.8568C66.2672 54.1568 65.0672 54.8568 63.8672 53.8568C63.7672 53.7568 63.3672 54.0568 63.1672 54.1568C61.0672 54.8568 58.9672 55.1568 57.1672 54.9568C56.9672 54.9568 56.7672 54.9568 56.5672 54.9568C53.5672 54.1568 51.1672 54.2568 47.0672 54.9568C45.3672 55.2568 43.6672 55.0568 42.0672 54.3568C41.3672 54.0568 40.5672 53.6568 39.8672 53.4568C39.5672 53.3568 39.1672 53.3568 38.8672 53.4568C38.4672 53.5568 37.9672 53.6568 37.5672 53.8568C36.6672 54.2568 36.0672 53.2568 35.0672 53.6568C34.3672 53.7568 33.4672 53.5568 32.6672 53.6568Z" fill="#2E2E30"/>
<path d="M30.3672 42.9576C31.4672 42.3576 32.0672 42.5576 32.6672 43.1576C33.1672 42.3576 34.0672 42.6576 34.7672 42.6576C35.8672 42.6576 36.9672 41.2576 38.0672 42.6576C39.0672 41.4576 40.8672 42.6576 41.9672 41.5576C42.2672 41.1576 42.9672 41.1576 43.4672 40.9576C44.3672 40.5576 44.8672 42.1576 45.9672 41.1576C46.4672 40.6576 47.8672 40.8576 48.7672 41.0576C49.4672 41.1576 49.8672 42.0576 50.6672 41.0576C51.0672 40.5576 51.8672 42.0576 52.4672 40.9576C54.4672 41.4576 56.7672 40.9576 58.5672 42.3576C58.9672 42.6576 60.9672 42.7576 61.7672 42.7576C62.4672 42.7576 63.1672 42.5576 63.9672 43.0576C64.4672 43.3576 65.4672 42.8576 66.1672 42.7576C66.9672 42.6576 67.7672 42.6576 68.4672 42.7576C68.9672 42.8576 69.2672 43.3576 69.7672 43.7576C68.9672 44.4576 68.4672 45.0576 67.8672 45.6576C67.1672 45.6576 66.7672 44.4576 65.8672 45.4576C65.4672 45.8576 64.3672 45.5576 63.6672 45.6576C62.9672 45.7576 61.9672 46.4576 61.6672 46.1576C60.2672 45.2576 58.6672 45.3576 57.3672 44.6576C56.5672 44.1576 55.8672 43.9576 55.0672 43.8576C54.8672 43.8576 54.5672 43.5576 54.4672 43.4576C54.3672 42.7576 54.2672 42.9576 53.6672 43.1576C52.5672 43.4576 51.3672 43.4576 50.2672 43.3576C49.7672 43.3576 49.3672 42.6576 48.8672 42.3576C48.3672 42.6576 47.6672 43.4576 47.1672 43.3576C43.8672 43.2576 40.8672 45.1576 37.4672 44.6576C36.2672 44.4576 34.9672 44.4576 33.5672 45.0576C32.5672 45.2576 31.2672 44.3576 30.3672 42.9576Z" fill="#2E2E30"/>
<path d="M71.3656 70.7587C71.3656 71.7587 71.3656 72.1587 71.3656 72.6587C71.2656 72.7587 71.2656 72.8587 71.1656 72.8587C70.0656 72.8587 68.9656 72.7587 67.8656 73.4587C67.0656 73.9587 66.1656 72.5587 65.1656 73.3587C64.1656 71.9587 62.7656 73.7587 61.7656 72.8587C60.8656 73.9587 59.5656 73.2587 58.5656 73.4587C57.9656 73.5587 57.3656 73.3587 56.6656 73.8587C56.1656 74.2587 55.1656 74.6587 55.0656 73.2587C55.0656 73.2587 54.6656 73.1587 54.5656 73.1587C52.4656 73.5587 52.4656 73.5587 49.6656 72.9587C49.2656 72.8587 48.3656 73.5587 48.2656 73.3587C46.9656 72.1587 45.8656 73.4587 44.6656 73.3587C43.3656 73.2587 41.9656 73.8587 40.7656 72.8587C40.6656 72.7587 39.9656 73.3587 39.5656 73.3587C39.2656 73.3587 38.9656 72.9587 38.2656 72.3587C39.6656 72.4587 40.2656 71.7587 41.2656 71.9587C41.9656 72.0587 42.8656 71.9587 43.4656 71.5587C44.3656 70.9587 45.3656 71.2587 46.1656 70.9587C47.8656 70.2587 49.5656 70.1587 51.2656 71.0587C52.0656 71.4587 52.6656 70.3587 53.4656 70.7587C54.1656 71.1587 54.9656 71.3587 55.7656 71.5587C56.6656 70.2587 58.1656 72.2587 59.1656 71.0587C59.3656 70.8587 60.3656 71.2587 61.2656 71.5587C62.0656 70.9587 63.0656 69.6587 64.5656 70.8587C66.4656 70.1587 68.2656 71.1587 70.0656 71.4587C70.3656 71.5587 70.6656 71.1587 71.3656 70.7587Z" fill="#2E2E30"/>
<path d="M57.9659 32.557C56.9659 32.857 55.9659 33.057 55.1659 33.557C54.6659 33.857 54.5659 33.457 54.2659 33.457C53.9659 33.357 53.3659 33.457 53.3659 33.657C52.8659 34.957 51.8659 35.057 50.7659 35.057C49.7659 35.157 48.6659 34.557 47.7659 35.657C46.9659 34.657 45.7659 35.357 44.7659 35.057C42.1659 34.257 39.4659 34.557 36.8659 34.457C35.8659 34.457 34.6659 34.357 33.9659 33.857C32.9659 32.957 32.2659 33.857 31.4659 33.957C31.0659 32.057 31.3659 31.557 32.8659 31.657C33.9659 31.657 35.1659 31.257 36.1659 32.157C36.2659 32.257 36.7659 32.157 37.0659 32.157C40.6659 32.357 44.2659 32.457 47.8659 32.757C49.4659 32.957 50.9659 33.257 52.3659 32.157C52.5659 32.057 52.9659 32.357 53.3659 32.457C54.0659 32.757 54.0659 32.757 54.6659 31.457C55.8659 31.657 57.2659 30.957 57.9659 32.557Z" fill="#2E2E30"/>
<path d="M35.2656 80.3579C36.1656 79.3579 36.5656 78.7579 37.0656 78.2579C37.7656 77.6579 38.3656 78.3579 39.0656 78.4579C40.7656 78.7579 42.5656 78.5579 44.2656 78.5579C44.6656 77.5579 45.5656 78.6579 46.2656 78.0579C46.6656 77.6579 47.7656 77.9579 48.4656 77.9579C48.7656 77.9579 49.1656 78.0579 49.3656 77.9579C51.3656 76.3579 52.1656 78.5579 53.4656 79.4579C53.1656 79.5579 52.8656 79.7579 52.5656 79.7579C51.3656 79.3579 50.4656 80.3579 49.3656 80.3579C48.2656 80.4579 47.2656 80.0579 46.0656 80.7579C45.2656 81.2579 43.7656 81.0579 42.6656 80.7579C41.6656 80.4579 41.0656 81.8579 40.0656 81.1579C39.3656 80.7579 38.6656 80.4579 37.8656 80.2579C37.1656 80.2579 36.5656 80.3579 35.2656 80.3579Z" fill="#2E2E30"/>
<path d="M34.6641 23.658C35.3641 23.458 35.9641 23.158 36.5641 23.058C37.0641 22.958 37.7641 22.858 38.0641 23.058C39.1641 23.758 40.2641 23.258 41.3641 23.358C42.5641 21.858 43.4641 23.458 44.6641 23.658C44.6641 24.158 44.6641 24.558 44.6641 25.058C45.6641 24.558 45.6641 24.458 47.7641 24.558C48.3641 24.558 48.8641 23.758 49.6641 24.458C50.0641 24.858 50.8641 24.758 51.5641 24.758C52.6641 24.758 53.7641 24.558 55.3641 24.358C54.8641 25.058 54.7641 25.458 54.4641 25.558C53.6641 25.858 52.8641 26.058 52.0641 26.158C51.1641 26.258 50.3641 26.158 49.4641 26.158C48.6641 26.158 47.7641 25.858 47.0641 26.658C46.3641 26.258 45.6641 25.858 44.9641 25.558C43.4641 24.758 41.7641 24.758 40.2641 25.058C39.6641 25.158 39.2641 25.058 38.6641 24.958C38.1641 24.858 37.6641 24.158 37.0641 24.858C36.9641 24.958 36.0641 24.558 35.6641 24.258C35.3641 24.258 35.0641 23.958 34.6641 23.658Z" fill="#2E2E30"/>
<path d="M57.6641 32.8564C60.6641 31.4564 63.5641 31.2564 68.4641 31.7564C68.7641 32.8564 67.5641 33.0564 67.1641 33.6564C64.1641 32.6564 60.9641 33.8564 57.6641 32.8564Z" fill="#2E2E30"/>
<path d="M60.8672 24.057C61.4672 24.057 62.3672 23.757 62.7672 24.057C63.9672 24.957 64.6672 24.357 65.6672 23.757C66.6672 23.157 68.0672 23.057 69.3672 22.957C69.8672 22.957 70.3672 23.457 70.8672 23.757C70.6672 24.857 70.1672 25.357 69.2672 25.257C68.5672 25.157 67.8672 24.957 67.0672 24.757C66.1672 25.757 65.1672 26.457 63.5672 25.357C62.7672 24.657 61.4672 25.457 60.8672 24.057Z" fill="#2E2E30"/>
<path d="M61.1609 24.5579C60.5609 25.1579 60.3609 25.4579 60.0609 25.6579C59.8609 25.7579 59.5609 25.3579 59.2609 25.3579C58.8609 25.3579 58.4609 25.6579 57.9609 25.7579C57.5609 25.8579 57.1609 25.7579 56.7609 25.7579C56.3609 25.7579 56.0609 25.7579 55.4609 25.7579C55.6609 24.6579 55.7609 23.6579 57.0609 24.5579C57.6609 23.5579 58.6609 24.6579 58.7609 24.4579C59.7609 23.3579 60.2609 24.4579 61.1609 24.5579Z" fill="#2E2E30"/>
<path d="M32.4625 23.2578C32.9625 23.7578 33.2625 23.9578 33.5625 24.1578C32.9625 24.4578 32.4625 24.6578 31.5625 25.1578C31.9625 24.3578 32.2625 23.8578 32.4625 23.2578Z" fill="#2E2E30"/>
<path d="M35.0625 79.1562C34.5625 79.4563 34.3625 79.7562 34.1625 79.7562C34.0625 79.7562 33.7625 79.4562 33.5625 79.3562C33.7625 79.1562 33.9625 78.8563 34.1625 78.6562C34.2625 78.6563 34.5625 78.8562 35.0625 79.1562Z" fill="#2E2E30"/>
<path d="M32.7656 73.0594C33.3656 72.9594 33.7656 72.9594 34.1656 72.8594C33.9656 73.0594 33.7656 73.2594 33.4656 73.4594C33.3656 73.4594 33.1656 73.2594 32.7656 73.0594Z" fill="#2E2E30"/>
<path d="M34.4625 72.2578C34.5625 72.3578 34.6625 72.4578 34.6625 72.4578C34.5625 72.5578 34.4625 72.6578 34.3625 72.8578C34.2625 72.7578 34.1625 72.6578 34.0625 72.5578C34.2625 72.4578 34.3625 72.3578 34.4625 72.2578Z" fill="#2E2E30"/>
</svg>
