<svg width="96" height="21" viewBox="0 0 96 21" fill="none" xmlns="http://www.w3.org/2000/svg">
<path d="M65.1387 14.2658C61.0387 13.3658 56.8387 13.1658 52.8387 12.8658C43.5387 12.0658 34.3387 12.2658 25.0387 12.5658C20.2387 12.7658 15.5387 11.3658 10.7387 12.0658C8.13866 12.3658 5.63866 12.5658 3.03866 12.1658C1.73866 11.9658 0.938665 11.3658 0.438665 10.2658C-0.561335 8.06581 0.138664 6.76581 2.63866 6.66581C5.73866 6.46581 8.83866 6.26581 11.9387 6.26581C22.2387 6.46581 32.5387 5.26581 42.8387 5.96581C48.9387 6.36581 54.9387 6.56581 61.0387 6.76581C62.2387 6.76581 63.5387 7.06581 64.8387 6.46581C64.7387 6.06581 64.6387 5.76581 64.5387 5.46581C64.0387 4.26581 63.0387 3.1658 64.2387 1.9658C65.4387 0.665805 67.0387 0.165806 68.8387 0.865806C72.4387 2.36581 76.3387 2.56581 79.9387 4.16581C82.9387 5.46581 86.4387 5.66581 89.8387 5.86581C91.1387 5.96581 92.4387 5.96581 93.6387 6.46581C95.0387 6.96581 95.6387 8.06581 95.6387 9.46581C95.7387 10.7658 95.1387 11.6658 93.8387 12.1658C93.2387 12.3658 92.6387 12.8658 92.0387 12.7658C88.8387 12.3658 85.9387 13.6658 82.8387 13.8658C78.5387 14.2658 74.5387 15.6658 71.2387 18.6658C70.7387 19.0658 70.2387 19.5658 69.7387 19.8658C67.2387 21.2658 64.9387 20.0658 64.8387 17.1658C64.7387 16.1658 64.9387 15.2658 65.1387 14.2658Z" fill="#002E2E"/>
</svg>
