<svg width="95" height="76" viewBox="0 0 95 76" fill="none" xmlns="http://www.w3.org/2000/svg">
<path d="M84.4572 22.4679C85.0572 24.9679 85.9572 26.7679 86.2572 28.6679C86.5572 30.5679 88.2572 32.0679 87.9572 33.9679C87.2572 34.6679 86.7572 35.1679 86.0572 35.8679C85.6572 35.5679 85.2572 35.2679 84.8572 34.9679C84.6572 35.0679 84.3572 35.1679 84.1572 35.3679C83.2572 36.0679 82.0572 35.6679 81.0572 36.5679C80.3572 37.2679 78.8572 37.1679 78.0572 37.7679C76.7572 38.7679 75.1572 38.8679 73.7572 39.4679C72.4572 40.0679 71.2572 40.9679 69.8572 41.4679C69.4572 41.6679 69.1572 41.9679 68.7572 42.2679C67.3572 43.5679 66.1572 45.0679 64.4572 46.1679C63.8572 46.5679 63.1572 47.0679 63.1572 47.9679C63.1572 48.1679 62.9572 48.5679 62.7572 48.6679C60.7572 49.7679 59.9572 51.9679 58.5572 53.5679C57.6572 54.5679 57.2572 56.0679 57.1572 57.4679C57.0572 58.9679 55.7572 59.1679 54.9572 59.8679C54.7572 60.0679 54.0572 59.9679 53.8572 59.7679C53.2572 58.8679 52.3572 58.9679 51.5572 58.9679C51.3572 58.9679 51.1572 59.0679 51.0572 58.9679C49.1572 57.7679 47.3572 58.9679 45.7572 59.5679C44.6572 59.9679 43.5572 60.3679 42.3572 60.5679C41.1572 60.7679 40.0572 61.0679 38.8572 61.3679C35.8572 62.0679 32.7572 62.3679 30.0572 64.1679C29.0572 64.8679 27.6572 64.9679 26.8572 66.0679C25.0572 65.8679 23.7572 67.4679 21.9572 67.4679C21.1572 68.3679 20.3572 67.4679 19.5572 67.4679C19.2572 67.4679 19.0572 66.8679 18.8572 66.5679C17.7572 65.3679 17.2572 63.8679 17.2572 62.2679C17.2572 61.5679 16.6572 61.5679 16.4572 61.1679C15.9572 60.4679 15.5572 59.5679 15.4572 58.7679C15.2572 57.3679 14.5572 56.2679 13.9572 55.1679C13.1572 53.8679 12.8572 52.1679 12.0572 50.9679C10.6572 48.9679 10.4572 46.5679 8.65721 44.7679C7.75721 43.7679 7.05721 42.3679 6.85721 40.7679C6.65721 39.8679 6.45721 38.9679 5.85721 38.0679C5.35721 37.2679 4.25721 36.5679 4.45721 35.3679C4.45721 35.3679 4.05721 35.2679 3.75721 35.1679C3.75721 34.3679 3.75721 33.5679 3.75721 32.5679C5.05721 31.2679 6.55721 29.8679 7.95721 28.3679C9.25721 26.9679 10.7572 25.7679 12.4572 24.8679C12.5572 24.7679 12.6572 24.6679 12.7572 24.5679C14.5572 22.2679 17.2572 21.5679 19.8572 20.5679C21.5572 19.9679 23.5572 19.9679 25.0572 18.8679C25.3572 18.6679 25.9572 18.7679 26.4572 18.7679C28.8572 18.7679 31.3572 18.7679 33.7572 18.7679C34.3572 18.7679 34.9572 18.5679 35.5572 19.1679C35.9572 19.4679 36.5572 19.3679 36.9572 18.8679C37.3572 19.1679 37.7572 19.4679 38.2572 19.7679C38.3572 19.7679 38.4572 19.7679 38.4572 19.7679C40.1572 20.0679 40.3572 20.4679 40.5572 22.1679C40.6572 23.1679 40.8572 24.2679 41.4572 25.0679C42.0572 25.9679 41.9572 27.1679 43.0572 27.7679C43.3572 27.9679 43.7572 28.2679 43.8572 28.5679C44.4572 30.8679 45.8572 32.7679 46.2572 35.1679C46.3572 35.4679 46.5572 35.8679 46.7572 36.1679C46.9572 36.5679 47.3572 36.9679 47.3572 37.2679C47.4572 38.8679 48.6572 39.8679 49.1572 41.2679C49.2572 41.6679 49.4572 42.0679 49.5572 42.4679C49.7572 43.4679 50.1572 44.3679 50.6572 45.3679C51.4572 46.7679 52.5572 48.0679 52.3572 49.8679C52.2572 50.5679 52.9572 51.2679 52.7572 52.0679C52.5572 52.6679 52.4572 53.3679 52.3572 54.0679C53.3572 54.0679 53.1572 55.4679 54.1572 55.6679C55.1572 55.5679 55.4572 54.4679 55.5572 53.8679C55.9572 52.0679 56.8572 50.6679 58.2572 49.5679C58.9572 48.9679 59.1572 48.0679 60.0572 47.6679C60.9572 47.1679 60.9572 46.1679 61.4572 45.4679C62.0572 44.5679 62.8572 43.6679 63.7572 43.1679C65.0572 42.4679 65.8572 41.3679 66.8572 40.4679C67.8572 39.4679 69.0572 38.6679 70.3572 37.9679C71.9572 37.1679 73.4572 36.0679 75.2572 35.4679C75.6572 35.3679 76.0572 35.0679 76.3572 34.7679C76.6572 34.5679 76.7572 34.1679 77.0572 34.1679C79.2572 33.9679 80.7572 31.9679 82.9572 32.0679C82.9572 31.8679 83.0572 31.7679 83.0572 31.7679C82.1572 30.9679 82.9572 29.7679 82.2572 28.7679C81.7572 28.0679 81.3572 27.1679 81.1572 26.1679C80.8572 24.9679 80.7572 23.4679 79.2572 22.7679C78.8572 22.5679 78.6572 20.4679 78.3572 19.5679C78.0572 18.5679 77.5572 17.6679 76.9572 16.8679C76.6572 16.4679 76.5572 16.0679 76.4572 15.6679C76.1572 14.9679 75.9572 14.3679 76.0572 13.6679C76.0572 12.9679 74.7572 13.3679 75.1572 12.4679C74.2572 11.0679 73.9572 9.46786 73.5572 7.96786C73.1572 6.56786 71.9572 5.56786 72.3572 3.76786C69.8572 3.76786 67.4572 3.56786 65.0572 3.86786C63.8572 3.96786 62.7572 4.66786 61.6572 5.36786C60.4572 6.06786 59.5572 7.36786 57.8572 7.16786C57.6572 7.16786 57.4572 7.76786 57.1572 7.76786C56.0572 7.96786 55.6572 9.16786 54.5572 9.56786C53.7572 9.86786 53.0572 10.5679 52.4572 11.1679C51.6572 11.8679 50.8572 12.7679 50.0572 13.4679C49.7572 13.7679 49.5572 14.0679 49.1572 14.1679C48.3572 14.6679 47.4572 14.8679 46.7572 15.4679C45.9572 16.1679 45.3572 17.0679 44.6572 17.8679C43.9572 18.6679 43.1572 19.2679 42.4572 20.0679C42.3572 20.1679 42.3572 20.4679 42.3572 20.8679C41.7572 20.5679 41.2572 20.3679 40.6572 20.1679C39.9572 18.6679 41.4572 17.8679 41.9572 16.7679C42.3572 15.9679 42.9572 15.2679 43.6572 14.6679C44.3572 13.9679 45.0572 13.2679 45.9572 12.8679C47.4572 12.1679 48.8572 11.3679 49.5572 9.66786C49.6572 9.46786 49.8572 9.26786 50.0572 9.16786C51.9572 8.36786 52.8572 6.46786 54.7572 5.56786C56.8572 4.66786 58.9572 3.86786 60.7572 2.36786C61.3572 1.86786 61.9572 1.46786 62.7572 0.967857C64.0572 0.967857 65.6572 0.567857 67.1572 0.167857L69.9572 0.267857C70.4572 0.667857 70.8572 0.467857 71.4572 0.267857C72.4572 -0.232143 72.8572 -0.0321432 73.2572 0.867857C73.8572 2.06786 74.2572 3.36786 75.3572 4.16786C76.4572 3.46786 77.5572 2.66786 78.6572 1.96786C78.9572 1.76786 79.5572 1.86786 79.7572 2.06786C80.3572 2.76786 81.1572 3.16786 81.4572 4.26786C81.7572 5.46786 82.5572 6.46786 83.0572 7.56786C84.4572 11.2679 86.0572 14.8679 87.7572 18.3679C88.1572 19.2679 87.8572 20.2679 88.8572 21.0679C89.5572 21.5679 89.8572 22.4679 90.2572 23.2679C90.4572 23.7679 91.1572 24.2679 90.4572 24.8679C90.8572 25.3679 91.3572 25.9679 91.5572 26.5679C91.7572 27.0679 91.6572 27.8679 91.9572 28.2679C92.4572 28.9679 91.9572 29.7679 92.2572 30.2679C92.9572 31.3679 92.5572 32.5679 92.7572 33.5679C93.2572 34.0679 93.7572 34.4679 94.0572 34.7679C94.0572 35.8679 94.0572 36.4679 94.0572 37.1679C92.9572 37.8679 91.9572 38.7679 90.7572 39.0679C89.5572 39.3679 88.5572 39.7679 87.3572 40.0679C87.1572 40.1679 86.7572 40.0679 86.6572 40.1679C85.4572 41.4679 83.7572 41.6679 82.2572 42.1679C81.5572 42.3679 80.7572 42.4679 80.0572 42.5679C79.2572 43.1679 78.4572 43.7679 77.6572 44.3679C77.2572 44.6679 76.8572 44.7679 76.5572 45.0679C76.1572 45.3679 75.5572 45.5679 75.2572 45.9679C74.6572 46.5679 73.6572 46.1679 73.0572 47.0679C72.6572 47.7679 71.7572 48.0679 71.1572 48.5679C70.5572 49.0679 69.8572 49.4679 69.4572 50.1679C69.0572 50.7679 68.0572 50.9679 67.7572 51.5679C67.4572 52.3679 66.6572 52.4679 66.1572 52.9679C65.6572 53.4679 65.1572 54.0679 64.3572 54.3679C63.4572 54.7679 62.9572 56.0679 61.8572 56.2679C61.6572 57.2679 60.5572 57.8679 60.7572 59.1679C61.0572 60.3679 60.2572 61.5679 59.2572 62.0679C57.6572 62.8679 56.3572 64.4679 54.2572 64.2679C53.7572 65.1679 53.4572 63.7679 52.9572 64.1679C51.3572 62.7679 49.7572 63.0679 48.0572 64.1679C47.2572 64.6679 46.5572 65.1679 45.7572 65.5679C44.4572 66.3679 42.9572 66.8679 41.5572 67.4679C39.6572 68.3679 37.5572 68.7679 35.6572 69.7679C34.8572 70.1679 33.9572 70.3679 33.1572 70.5679C32.2572 70.7679 31.4572 71.0679 30.5572 71.1679C29.6572 71.2679 29.2572 72.6679 28.1572 72.2679C26.3572 72.9679 24.4572 73.4679 22.6572 74.3679C21.3572 75.0679 19.8572 75.2679 18.3572 75.4679C17.1572 75.6679 15.9572 75.4679 15.4572 74.0679C15.1572 73.3679 14.6572 72.7679 14.3572 72.1679C14.0572 71.6679 13.8572 71.0679 13.4572 70.6679C12.5572 69.7679 12.1572 68.6679 11.7572 67.5679C10.7572 65.1679 9.55721 62.7679 8.45721 60.3679C8.15721 59.6679 7.65721 59.1679 7.65721 58.3679C7.65721 57.8679 7.35721 57.2679 6.95721 57.0679C4.95721 55.8679 5.45721 53.5679 4.35721 51.9679C4.55721 50.9679 3.85721 50.4679 3.45721 49.6679C3.05721 48.7679 2.55721 47.8679 2.25721 46.8679C1.85721 45.1679 0.857208 43.5679 0.157208 41.8679C-0.442792 40.3679 0.757208 38.8679 2.35721 38.8679C2.45721 38.8679 2.55721 39.0679 2.75721 39.2679C2.75721 39.6679 2.15721 39.8679 1.95721 40.1679C1.75721 40.4679 1.65721 40.8679 1.55721 41.0679C2.45721 42.8679 3.35721 44.5679 4.15721 46.3679C4.75721 47.5679 4.85721 49.0679 5.85721 50.1679C6.15721 50.4679 6.45721 50.9679 6.45721 51.3679C6.25721 53.7679 7.85721 55.3679 9.05721 57.1679C9.05721 57.2679 9.15721 57.2679 9.25721 57.3679C10.6572 60.0679 12.3572 62.5679 13.3572 65.3679C14.2572 67.7679 16.0572 69.5679 17.1572 71.8679C17.3572 72.2679 17.8572 72.5679 18.3572 72.3679C19.3572 72.0679 20.3572 71.8679 21.3572 71.5679C22.1572 71.2679 23.1572 71.0679 23.7572 70.5679C24.4572 69.8679 25.6572 70.3679 26.1572 69.2679C26.2572 69.1679 26.7572 69.1679 27.0572 69.0679C27.3572 68.9679 29.4572 68.1679 29.7572 68.0679C30.1572 67.8679 30.5572 67.6679 31.0572 67.6679C32.5572 67.7679 33.7572 67.0679 35.0572 66.5679C37.0572 65.7679 39.0572 64.8679 41.2572 64.3679C42.2572 64.1679 43.3572 63.6679 44.2572 63.0679C45.0572 62.4679 46.0572 62.3679 46.9572 62.0679C47.5572 61.8679 48.4572 61.8679 48.7572 61.3679C49.3572 60.4679 50.2572 60.6679 50.9572 60.2679C51.4572 60.0679 52.3572 60.3679 52.9572 60.6679C54.1572 61.2679 55.1572 61.2679 56.0572 60.2679C56.1572 60.1679 56.4572 60.1679 56.6572 60.0679C57.6572 59.7679 58.2572 59.1679 58.2572 58.3679C58.2572 56.6679 59.3572 55.7679 60.4572 54.8679C60.7572 54.6679 61.1572 54.5679 61.3572 54.2679C63.6572 52.0679 66.0572 49.9679 68.3572 47.7679C68.9572 47.2679 69.4572 46.8679 70.2572 46.6679C70.9572 46.5679 71.2572 45.6679 72.0572 45.2679C72.9572 44.8679 73.7572 44.2679 74.3572 43.4679C76.4572 41.2679 79.0572 40.2679 81.9572 39.5679C83.5572 39.1679 85.1572 38.8679 86.5572 38.1679C87.5572 38.5679 87.8572 37.4679 88.4572 37.2679C89.1572 36.9679 89.9572 36.8679 91.0572 36.5679C90.4572 35.8679 89.9572 35.4679 89.6572 34.9679C89.3572 34.4679 89.3572 33.6679 88.9572 33.3679C88.1572 32.7679 88.5572 31.6679 87.8572 31.1679C88.0572 29.7679 87.1572 28.7679 86.6572 27.6679C86.3572 26.9679 85.8572 26.3679 85.9572 25.5679C85.9572 25.2679 85.8572 24.9679 85.6572 24.7679C85.3572 24.3679 84.9572 24.0679 84.6572 23.7679C84.4572 23.5679 84.3572 23.1679 84.2572 22.8679C84.6572 22.9679 84.5572 22.9679 84.4572 22.4679C84.2572 22.1679 84.1572 22.3679 84.1572 22.4679C84.2572 22.6679 84.4572 22.8679 84.6572 23.0679C84.6572 22.6679 84.5572 22.3679 84.4572 22.4679ZM37.9572 21.5679C37.3572 21.5679 36.2572 21.8679 35.4572 21.4679C34.5572 20.9679 33.8572 21.2679 33.2572 21.5679C32.2572 22.0679 31.3572 21.9679 30.3572 21.9679C29.6572 22.0679 28.9572 21.9679 28.1572 22.2679C26.9572 22.7679 25.5572 22.9679 24.3572 23.2679C22.9572 23.5679 21.8572 24.7679 20.2572 24.3679C20.1572 24.3679 19.9572 24.6679 19.7572 24.7679C17.9572 25.5679 16.0572 26.0679 14.8572 27.7679C14.6572 27.9679 14.3572 27.9679 14.0572 28.1679C13.1572 28.8679 12.1572 29.3679 11.1572 29.8679C9.95721 30.4679 9.55721 31.6679 8.75721 32.4679C7.75721 33.3679 6.75721 34.2679 5.75721 35.1679C5.95721 35.3679 6.35721 35.5679 6.35721 35.8679C6.55721 36.8679 7.15721 37.4679 7.65721 38.1679C8.15721 38.9679 8.25721 40.0679 9.15721 40.5679C9.25721 40.6679 9.35721 40.7679 9.35721 40.9679C9.45721 42.5679 10.2572 43.7679 11.4572 44.8679C11.5572 44.9679 11.5572 45.2679 11.7572 45.4679C13.3572 47.8679 14.4572 50.4679 15.8572 52.9679C16.2572 53.7679 16.5572 54.5679 16.9572 55.3679C17.3572 56.1679 18.3572 57.0679 18.2572 57.8679C18.1572 58.9679 19.2572 59.3679 19.3572 60.2679C19.4572 60.6679 19.6572 61.0679 19.7572 61.4679C20.0572 62.6679 20.1572 63.9679 21.4572 64.6679C22.9572 63.9679 24.3572 63.3679 25.8572 62.6679C26.1572 62.5679 26.3572 62.3679 26.6572 62.3679C27.7572 62.3679 28.5572 61.8679 29.2572 61.1679C29.9572 60.4679 30.8572 60.1679 31.8572 59.9679C33.8572 59.6679 35.7572 59.0679 37.6572 58.5679C39.2572 58.1679 40.7572 57.4679 42.4572 57.6679C42.9572 57.6679 43.2572 57.5679 43.6572 57.1679C44.8572 56.2679 46.1572 55.4679 47.7572 55.6679C48.1572 55.6679 48.6572 55.5679 49.0572 55.4679C50.0572 55.0679 50.8572 55.2679 51.7572 55.5679C51.7572 54.3679 51.7572 54.3679 51.1572 53.7679C49.9572 52.4679 48.5572 51.3679 48.5572 49.3679C48.5572 49.1679 48.1572 48.9679 47.9572 48.6679C47.3572 47.5679 46.6572 46.5679 46.2572 45.3679C46.0572 44.7679 46.3572 44.0679 45.7572 43.4679C44.8572 42.5679 44.6572 41.2679 44.1572 40.1679C43.9572 39.6679 43.7572 39.0679 43.4572 38.5679C42.8572 37.5679 42.3572 36.5679 42.4572 35.4679C42.4572 34.9679 42.5572 34.3679 42.3572 34.1679C41.1572 33.0679 41.1572 31.4679 40.3572 30.2679C39.2572 27.8679 37.9572 25.6679 38.2572 22.9679C38.3572 22.5679 38.0572 22.1679 37.9572 21.5679ZM75.8572 5.66786C76.2572 6.66786 76.6572 7.76786 77.1572 8.66786C77.6572 9.56786 77.5572 10.7679 78.8572 11.2679C79.3572 11.4679 79.8572 12.4679 79.9572 13.0679C80.0572 14.1679 80.4572 15.0679 81.1572 15.8679C81.6572 16.3679 81.7572 17.1679 81.9572 17.8679C82.2572 18.9679 82.1572 20.3679 83.7572 20.8679C83.7572 20.1679 83.7572 19.5679 83.4572 18.8679C82.8572 17.4679 82.0572 16.1679 81.8572 14.5679C80.8572 13.8679 81.7572 12.8679 81.2572 11.9679C80.2572 10.2679 79.9572 8.26786 79.4572 6.36786C79.2572 5.36786 79.0572 4.06786 77.8572 3.56786C77.0572 4.96786 77.0572 4.96786 75.8572 5.66786Z" fill="#2E2E30"/>
<path d="M71.2609 27.768C72.8609 27.568 74.3609 27.368 75.8609 27.168C76.0609 27.668 76.2609 28.068 76.4609 28.568C75.7609 29.468 74.8609 30.268 73.4609 30.168C72.7609 30.068 72.2609 30.468 71.8609 30.868C71.4609 31.368 70.9609 31.668 70.2609 31.568C69.9609 31.568 69.5609 31.768 69.2609 31.968C68.4609 32.668 67.8609 33.668 66.5609 33.368C66.3609 33.368 66.0609 33.668 65.8609 33.868C65.4609 34.268 65.0609 34.868 64.3609 34.768C64.2609 34.768 63.9609 34.868 63.9609 34.968C63.4609 36.868 61.1609 37.068 60.4609 38.368C59.8609 38.368 59.4609 38.368 59.1609 38.368C59.9609 39.068 59.0609 39.568 58.8609 39.968C58.5609 40.568 57.9609 41.068 57.4609 41.668C57.0609 41.368 56.7609 41.168 56.4609 40.968C56.4609 40.868 56.4609 40.668 56.4609 40.568C56.8609 39.968 57.3609 39.568 57.5609 38.868C57.9609 37.768 59.1609 37.568 59.6609 36.468C60.1609 35.368 61.3609 34.568 62.2609 33.768C63.0609 32.968 64.0609 32.268 64.8609 31.568C64.9609 31.568 64.9609 31.468 65.0609 31.468C65.7609 31.168 66.6609 31.268 67.1609 30.568C67.6609 29.868 68.2609 29.868 68.9609 29.568C69.7609 29.268 70.4609 28.468 71.2609 27.768Z" fill="#2E2E30"/>
<path d="M52.2535 35.4664C51.5535 34.3664 52.3535 33.5664 52.7535 32.9664C53.2535 32.1664 53.9535 31.4664 54.7535 30.9664C55.4535 30.4664 55.5535 29.2664 56.5535 29.1664C58.1535 26.8664 60.8535 26.0664 62.7535 24.3664C63.2535 23.9664 63.6535 24.9664 63.9535 24.1664C64.1535 23.6664 64.6535 23.2664 65.0535 22.9664C65.5535 22.6664 66.0535 22.3664 66.6535 22.2664C68.1535 21.9664 69.5535 21.7664 71.0535 21.5664C71.3535 22.5664 71.2535 23.2664 70.3535 23.5664C68.8535 24.0664 67.6535 25.2664 65.9535 25.4664C65.6535 25.4664 65.3535 25.9664 65.0535 26.1664C64.5535 26.3664 64.0535 25.4664 63.5535 26.2664C63.2535 26.6664 62.7535 27.0664 62.3535 27.3664C61.8535 27.7664 61.3535 28.0664 60.8535 28.3664C60.0535 28.8664 59.2535 29.4664 58.3535 29.7664C57.4535 30.0664 57.6535 31.1664 56.6535 31.3664C55.8535 31.5664 55.1535 32.3664 54.5535 32.9664C53.9535 33.5664 53.5535 34.2664 53.0535 34.9664C52.9535 35.0664 52.6535 35.1664 52.2535 35.4664Z" fill="#2E2E30"/>
<path d="M72.7547 14.0688C72.5547 14.6688 73.2547 14.8688 72.9547 15.6688C72.6547 16.5688 72.0547 16.1688 71.5547 16.4688C69.4547 17.5688 67.0547 17.8688 64.9547 18.7688C64.8547 18.8688 64.6547 18.7688 64.4547 18.7688C62.1547 18.6688 60.3547 19.8688 58.6547 21.2688C57.7547 21.9688 56.6547 22.1688 55.8547 23.0688C55.6547 23.2688 55.1547 23.0688 54.5547 22.9688C54.8547 22.4688 55.0547 21.8688 55.2547 21.8688C56.4547 21.7688 56.7547 20.6688 57.5547 20.0688C58.0547 19.6688 58.5547 19.4688 58.9547 19.0688C59.2547 18.7688 60.1547 19.0688 60.0547 18.0688C60.0547 17.8688 60.9547 17.2688 61.3547 17.3688C62.9547 17.8688 63.9547 15.9688 65.4547 16.3688C66.5547 15.1688 68.3547 15.3688 69.6547 14.5688C70.5547 14.0688 71.5547 13.8688 72.7547 14.0688Z" fill="#2E2E30"/>
<path d="M49.6588 20.2695C49.5588 19.3695 49.6588 18.7695 50.2588 18.2695C51.3588 17.4695 52.2588 16.4695 53.3588 15.6695C54.4588 14.8695 55.5588 14.2695 56.6588 13.4695C57.3588 12.9695 58.2588 12.5695 58.8588 11.8695C59.6588 10.9695 60.6588 10.8695 61.6588 10.6695C63.4588 10.1695 65.3588 9.76953 67.2588 9.26953C67.4588 9.56953 67.5588 9.96953 67.8588 10.4695C67.0588 11.5695 65.8588 12.1695 64.2588 12.1695C63.0588 12.1695 61.8588 12.3695 60.6588 12.6695C60.1588 12.7695 59.8588 13.2695 59.3588 13.5695C57.9588 14.3695 56.4588 14.9695 55.1588 15.9695C53.8588 16.9695 52.4588 17.8695 51.1588 18.8695C50.8588 19.0695 50.8588 19.5695 50.6588 19.7695C50.5588 19.8695 50.0588 20.0695 49.6588 20.2695Z" fill="#2E2E30"/>
<path d="M53.8541 23.4664C53.9541 24.3664 53.4541 24.6664 52.6541 25.0664C52.1541 24.0664 52.3541 23.3664 53.3541 23.0664C53.5541 23.1664 53.7541 23.2664 53.8541 23.4664Z" fill="#2E2E30"/>
<path d="M53.4609 22.9663C53.5609 22.2663 54.0609 22.3663 54.3609 22.6663C54.5609 22.8663 54.4609 23.3663 53.9609 23.3663C53.7609 23.2663 53.5609 23.1663 53.4609 22.9663Z" fill="#2E2E30"/>
<path d="M49.6578 20.368C49.5578 20.468 49.4578 20.468 49.3578 20.568C49.3578 20.468 49.2578 20.268 49.2578 20.268C49.3578 20.168 49.4578 20.168 49.6578 20.168C49.6578 20.268 49.6578 20.268 49.6578 20.368Z" fill="#2E2E30"/>
<path d="M45.2594 51.9672C44.1594 52.7672 43.3594 53.4672 42.4594 54.0672C41.6594 54.5672 40.8594 54.8672 39.8594 54.7672C38.7594 54.6672 37.6594 54.7672 36.5594 54.7672C33.5594 54.7672 33.4594 54.6672 31.1594 56.4672C29.4594 57.7672 27.4594 57.9672 25.3594 59.3672C25.5594 58.6672 25.4594 58.2672 25.6594 58.1672C26.5594 57.4672 27.0594 56.1672 28.5594 56.0672C29.1594 56.0672 29.7594 55.0672 30.2594 54.4672C31.0594 53.4672 32.1594 53.1672 33.3594 52.8672C35.4594 52.3672 37.4594 51.7672 39.6594 51.8672C39.9594 51.8672 40.3594 51.5672 40.6594 51.3672C41.7594 50.5672 43.0594 50.9672 44.2594 50.9672C44.4594 50.9672 44.7594 51.4672 45.2594 51.9672Z" fill="#2E2E30"/>
<path d="M37.7563 40.2665C36.7563 40.3665 36.3563 41.6665 35.1563 41.4665C34.3563 41.3665 33.3562 41.6666 32.5562 41.8666C31.6562 42.0666 30.7562 42.1666 29.8562 41.8666C29.3562 41.7666 28.4563 42.4665 28.2563 42.2665C27.5563 41.6665 26.8563 42.2666 26.7563 42.3666C26.1563 43.1666 25.1562 42.3665 24.6562 42.9665C24.1562 43.5665 23.5563 43.6665 22.8563 43.7665C22.2563 43.8665 21.8563 44.5665 21.2563 44.9665C20.6563 45.3665 20.1562 45.6666 19.1562 46.3666C19.8562 44.3666 21.1563 43.4666 22.3563 42.5666C23.8563 41.2666 25.9562 40.9666 27.6562 40.0666C27.8563 39.9666 28.1563 40.0666 28.3563 40.0666C29.3563 39.9666 30.3563 40.3665 31.2563 39.7665C32.0563 39.2665 32.9562 39.6665 33.8562 39.2665C35.2562 38.5665 36.6563 39.3665 37.7563 40.2665Z" fill="#2E2E30"/>
<path d="M27.1552 34.7676C26.5552 34.3676 26.2552 33.7676 26.5552 33.1676C26.7552 32.7676 27.2552 32.2676 27.8552 32.4676C28.1552 32.5676 28.5552 32.5676 28.7552 32.4676C30.0552 31.4676 31.7552 31.6676 33.1552 31.2676C34.0552 31.0676 35.0552 30.9676 35.8552 31.1676C36.3552 31.2676 36.9552 31.9676 37.2552 32.4676C37.5552 33.0676 36.9552 33.8676 36.2552 33.8676C35.0552 33.9676 33.7552 33.6676 32.8552 34.0676C32.1552 34.3676 31.6552 33.8676 31.3552 34.0676C30.7552 34.4676 30.1552 34.3676 29.5552 34.3676C28.1552 34.2676 27.9552 34.2676 27.1552 34.7676Z" fill="#2E2E30"/>
<path d="M32.2591 47.8683C32.0591 48.3683 32.0591 48.9683 31.6591 49.1683C30.6591 49.7683 29.8591 50.6683 28.4591 50.4683C26.7591 50.3683 25.1591 51.1683 23.8591 52.3683C23.2591 52.8683 22.8591 53.6683 21.8591 53.1683C21.5591 52.5683 21.6591 52.0683 22.2591 51.5683C23.0591 50.7683 23.8591 50.1683 24.9591 49.6683C25.9591 49.2683 26.8591 48.7683 28.0591 48.4683C29.2591 48.1683 30.3591 47.4683 31.6591 47.5683C31.7591 47.5683 31.9591 47.6683 32.2591 47.8683Z" fill="#2E2E30"/>
<path d="M23.9594 34.3688C22.6594 35.2688 21.3594 36.1688 20.0594 37.0688C18.7594 36.7688 18.0594 37.6688 17.2594 38.3688C17.0594 38.5688 16.5594 38.4688 15.8594 38.5688C16.3594 37.7688 16.7594 37.1688 17.1594 36.6688C17.7594 37.1688 18.1594 35.9688 18.9594 36.4688C19.3594 36.7688 19.2594 35.3688 20.0594 35.6688C20.2594 34.7688 21.1594 34.6687 21.7594 34.2687C22.3594 33.9687 22.7594 33.1687 23.7594 33.2687C24.2594 33.2687 24.7594 32.7688 25.2594 32.4688C25.8594 32.9688 26.2594 33.4687 25.7594 34.2687C25.3594 34.9687 25.0594 34.9688 23.9594 34.3688Z" fill="#2E2E30"/>
<path d="M24.4609 28.7695C24.8609 28.1695 24.9609 27.8695 25.2609 27.3695C26.0609 27.6695 26.9609 26.4695 28.1609 27.1695C28.2609 26.9695 28.4609 26.5695 28.5609 26.2695C28.8609 26.2695 29.1609 26.2695 29.6609 26.2695C29.6609 26.6695 29.7609 27.0695 29.7609 27.4695C28.0609 27.9695 26.4609 28.3695 24.4609 28.7695Z" fill="#2E2E30"/>
<path d="M16.5562 32.4689C16.4562 33.4689 15.3563 33.2689 14.8563 33.8689C14.8563 33.8689 14.3563 33.5689 14.1562 33.4689C14.3563 33.2689 14.4562 32.9689 14.6562 32.7689C15.1562 31.8689 15.8562 31.8689 16.5562 32.4689Z" fill="#2E2E30"/>
<path d="M20.7578 29.5695C21.4578 29.1695 22.2578 28.6695 22.9578 28.2695C23.1578 28.4695 23.3578 28.6695 23.4578 28.6695C22.8578 29.2695 22.3578 29.7695 21.8578 30.2695C21.5578 30.1695 21.1578 30.0695 20.7578 29.9695C20.7578 29.9695 20.7578 29.7695 20.7578 29.5695Z" fill="#2E2E30"/>
<path d="M16.6562 31.968C16.9563 30.668 16.9563 30.668 17.9563 30.668C17.5563 31.068 16.9563 31.668 16.6562 31.968Z" fill="#2E2E30"/>
<path d="M31.4594 27.8672C31.2594 27.3672 31.0594 27.0672 31.1594 26.9672C31.4594 26.5672 31.7594 26.2672 32.0594 25.8672C32.0594 25.8672 32.5594 26.1672 32.4594 26.1672C32.3594 26.5672 32.0594 26.9672 31.4594 27.8672Z" fill="#2E2E30"/>
<path d="M12.7585 35.2672C12.6585 34.2672 13.4585 33.7672 14.1585 33.3672C14.2585 34.4672 13.4585 34.8672 12.7585 35.2672Z" fill="#2E2E30"/>
<path d="M20.7563 30.0664C20.4563 30.9664 19.8562 30.4664 19.1562 30.3664C19.6562 29.9664 19.9563 29.7664 20.2563 29.5664C20.4563 29.7664 20.6563 29.9664 20.7563 30.0664Z" fill="#2E2E30"/>
<path d="M20.3594 29.568C20.4594 29.468 20.5594 29.268 20.6594 29.168C20.7594 29.268 20.7594 29.468 20.8594 29.568C20.6594 29.568 20.4594 29.568 20.3594 29.568Z" fill="#2E2E30"/>
<path d="M12.7594 35.4695C12.6594 35.5695 12.5594 35.5695 12.4594 35.6695C12.4594 35.5695 12.3594 35.3695 12.3594 35.3695C12.4594 35.2695 12.5594 35.2695 12.7594 35.2695C12.7594 35.3695 12.7594 35.4695 12.7594 35.4695Z" fill="#2E2E30"/>
</svg>
