<svg width="90" height="67" viewBox="0 0 90 67" fill="none" xmlns="http://www.w3.org/2000/svg">
<path d="M20.2545 48.5945C20.3545 49.9945 20.3545 51.4945 19.5545 52.7945C18.6545 54.1945 17.0545 54.2945 15.5545 54.0945C15.1545 54.9945 15.4545 55.6945 15.8545 56.2945C16.1545 56.7945 16.3545 57.2945 16.3545 57.8945C16.3545 58.2945 16.5545 58.6945 16.6545 59.0945C17.0545 60.4945 17.4545 61.9945 17.8545 63.3945C17.8545 63.4945 17.8545 63.6945 17.8545 63.6945C17.0545 64.0945 17.2545 65.5945 16.0545 65.4945C15.1545 65.4945 14.8545 66.8945 13.7545 66.3945C13.6545 66.3945 13.6545 66.3945 13.5545 66.3945C12.7545 66.4945 12.0545 67.2945 11.1545 66.6945C10.3545 66.1945 9.55451 65.4945 9.05451 65.0945C8.85451 64.2945 8.65451 63.6945 8.55451 63.1945C8.35451 62.1945 8.05451 61.1945 7.85451 60.1945C7.25451 57.1945 7.65451 54.1945 7.45451 51.1945C7.45451 50.3945 7.05451 49.5945 6.95451 48.9945C5.75451 49.0945 4.65451 49.2945 3.15451 49.3945C2.85451 48.9945 2.65451 48.2945 2.15451 48.1945C0.554508 47.6945 0.654509 46.2945 0.454509 45.1945C0.254509 43.9945 -0.145492 42.6945 0.0545085 41.4945C0.254508 39.8945 0.854508 38.3945 2.55451 37.7945C2.95451 37.6945 3.35451 37.5945 3.75451 37.5945C4.95451 37.5945 6.05451 37.5945 7.15451 37.5945C8.35451 36.3945 9.55451 35.1945 10.7545 33.9945C11.1545 33.5945 11.6545 33.3945 12.1545 33.0945C12.7545 32.6945 13.4545 32.6945 13.8545 31.9945C14.1545 31.3945 14.9545 31.0945 15.4545 30.6945C16.5545 29.6945 17.3545 28.3945 18.9545 27.9945C19.2545 27.8945 19.4545 27.4945 19.6545 27.1945C19.7545 26.9945 19.8545 26.6945 19.9545 26.6945C21.0545 26.8945 21.3545 25.6945 22.0545 25.4945C22.9545 25.1945 23.3545 24.3945 23.9545 23.8945C24.7545 23.1945 25.4545 22.5945 26.5545 22.2945C27.4545 22.0945 28.3545 21.3945 29.1545 20.7945C30.1545 20.0945 30.9545 19.1945 31.9545 18.4945C32.5545 17.9945 32.9545 17.0945 33.9545 16.9945C34.6545 16.8945 35.2545 16.1945 35.8545 15.7945C36.7545 15.0945 37.8545 14.5945 38.8545 13.9945C39.6545 13.3945 40.5545 12.8945 41.4545 12.3945C41.8545 12.1945 42.3545 12.0945 42.7545 11.7945C43.2545 11.1945 43.5545 11.8945 43.9545 11.8945C44.3545 11.8945 44.7545 11.5945 45.1545 11.5945C45.6545 11.4945 46.1545 11.4945 46.6545 11.5945C47.1545 11.6945 47.5545 11.8945 47.9545 12.0945C48.4545 12.2945 48.9545 12.4945 49.4545 12.6945C49.9545 12.9945 50.3545 13.2945 50.7545 13.6945C51.8545 14.8945 53.6545 15.3945 54.3545 17.0945C54.4545 17.4945 54.9545 17.6945 55.2545 17.9945C55.8545 18.5945 56.3545 19.0945 56.5545 20.0945C56.6545 20.8945 56.9545 21.6945 57.7545 22.1945C57.8545 22.2945 58.0545 22.3945 58.0545 22.4945C57.8545 24.2945 59.7545 25.4945 59.4545 27.3945C59.4545 27.6945 59.7545 27.9945 59.8545 28.2945C60.0545 28.9945 60.4545 29.4945 60.3545 30.2945C60.2545 31.0945 60.1545 31.8945 61.0545 32.3945C61.1545 32.3945 61.1545 32.5945 61.1545 32.6945C60.4545 33.8945 60.8545 35.1945 60.8545 36.4945C60.9545 38.8945 60.1545 40.8945 59.1545 42.9945C58.7545 43.7945 58.1545 44.4945 58.1545 45.3945C58.1545 45.5945 58.0545 45.7945 57.8545 45.8945C57.1545 46.4945 56.7545 47.2945 56.3545 48.0945C55.9545 48.9945 55.1545 49.5945 54.1545 49.9945C53.8545 50.0945 53.5545 50.2945 53.3545 50.1945C52.8545 49.8945 52.4545 49.9945 51.9545 50.1945C51.5545 50.3945 50.9545 50.0945 50.5545 50.4945C50.4545 50.5945 49.8545 50.1945 49.4545 50.1945C47.9545 49.9945 46.3545 49.7945 44.8545 49.7945C44.2545 49.7945 43.7545 49.5945 43.2545 49.2945C42.9545 49.1945 42.5545 49.1945 42.2545 48.9945C41.9545 48.7945 41.5545 49.5945 41.2545 48.9945C41.2545 48.9945 40.6545 49.1945 40.4545 49.2945C39.4545 49.7945 38.3545 49.0945 37.3545 49.2945C36.7545 48.4945 35.8545 48.8945 35.1545 48.8945C34.1545 48.7945 33.1545 48.8945 32.0545 48.8945C31.2545 48.8945 30.4545 49.1945 29.8545 48.4945C29.7545 48.3945 29.4545 48.3945 29.2545 48.4945C26.4545 49.1945 23.4545 47.8945 20.2545 48.5945ZM47.4545 47.7945C46.4545 46.7945 45.7545 45.6945 44.6545 44.9945C43.8545 44.3945 43.1545 43.3945 42.6545 42.1945C42.4545 41.6945 42.0545 41.2945 41.7545 40.7945C41.4545 40.1945 41.1545 39.5945 40.8545 38.9945C40.1545 37.4945 40.4545 35.8945 40.0545 34.2945C39.7545 32.9945 39.8545 31.6945 39.6545 30.2945C39.3545 28.5945 39.6545 26.7945 39.5545 25.0945C39.5545 23.3945 40.3545 21.7945 40.0545 19.9945C40.0545 19.8945 40.1545 19.6945 40.2545 19.5945C40.7545 18.9945 40.5545 18.3945 40.4545 17.8945C39.9545 18.1945 39.4545 18.5945 38.9545 18.5945C38.3545 18.5945 37.9545 18.9945 37.4545 19.1945C36.8545 19.4945 36.7545 20.0945 36.2545 20.3945C34.1545 21.3945 32.8545 23.4945 30.5545 24.0945C29.4545 25.5945 27.3545 25.6945 26.0545 26.9945C25.1545 27.8945 24.0545 28.4945 22.9545 29.0945C22.4545 29.3945 21.8545 29.7945 21.4545 30.1945C20.0545 31.4945 18.6545 32.8945 17.1545 33.9945C16.2545 34.6945 15.7545 35.5945 15.2545 36.4945C14.9545 37.0945 14.8545 37.7945 14.7545 38.4945C14.6545 38.8945 13.8545 39.1945 14.5545 39.7945C14.9545 40.0945 13.9545 40.6945 14.7545 40.8945C14.7545 42.4945 15.8545 43.6945 16.1545 45.0945C16.1545 45.1945 16.5545 45.3945 16.7545 45.4945C17.8545 45.7945 19.0545 45.7945 20.0545 46.1945C21.7545 46.9945 23.5545 46.8945 25.2545 46.5945C25.8545 46.4945 26.1545 47.0945 26.7545 46.7945C27.1545 46.5945 27.7545 46.7945 28.2545 46.6945C28.7545 46.5945 29.3545 46.1945 29.8545 46.2945C30.5545 46.4945 31.3545 47.0945 31.9545 46.7945C32.9545 46.3945 33.5545 47.0945 34.3545 47.0945C36.9545 46.9945 39.4545 47.7945 42.0545 47.5945C42.5545 47.4945 43.0545 47.4945 43.5545 47.5945C44.1545 47.7945 44.7545 48.0945 45.3545 48.3945C45.6545 47.5945 46.5545 48.1945 47.4545 47.7945ZM53.3545 47.4945C53.4545 47.1945 53.6545 46.8945 53.7545 46.5945C54.3545 45.0945 55.4545 43.7945 55.9545 42.2945C56.6545 40.2945 56.7545 38.0945 57.3545 36.0945C56.4545 34.8945 57.2545 33.3945 56.8545 32.0945C56.5545 30.9945 56.6545 29.7945 56.0545 28.6945C54.7545 26.2945 54.2545 23.4945 53.0545 20.9945C52.6545 20.1945 52.3545 19.4945 51.7545 18.8945C50.7545 17.8945 49.7545 16.9945 48.8545 15.9945C48.6545 15.7945 48.4545 15.1945 48.3545 15.1945C47.4545 15.3945 47.0545 14.6945 46.5545 14.1945C46.0545 13.6945 45.5545 13.7945 45.0545 14.1945C43.4545 15.2945 43.0545 16.9945 43.0545 18.5945C42.8545 21.9945 42.6545 25.3945 43.6545 28.7945C44.4545 28.5945 45.3545 28.3945 46.1545 28.3945C47.6545 28.2945 48.6545 28.6945 49.9545 29.7945C50.2545 30.0945 50.8545 30.1945 50.8545 30.4945C50.8545 31.7945 51.8545 32.5945 52.2545 33.7945C51.7545 34.3945 51.1545 35.0945 50.6545 35.8945C50.4545 36.1945 50.0545 36.4945 50.0545 36.6945C50.1545 37.3945 49.6545 37.6945 49.2545 38.0945C48.2545 39.0945 47.3545 39.9945 46.4545 40.8945C46.9545 42.0945 48.0545 42.2945 48.6545 43.2945C49.1545 44.1945 50.1545 44.8945 50.9545 45.5945C51.6545 46.2945 52.4545 46.8945 53.3545 47.4945ZM8.05451 48.1945C9.25451 49.1945 9.55451 50.4945 9.75451 51.7945C10.0545 53.7945 11.0545 55.6945 10.6545 57.7945C10.6545 57.8945 10.9545 58.0945 11.0545 58.2945C11.2545 59.1945 11.3545 60.0945 11.5545 60.8945C11.6545 61.5945 11.8545 62.2945 12.1545 62.7945C12.4545 63.1945 13.0545 63.3945 13.4545 63.6945C13.9545 63.4945 14.2545 63.3945 14.5545 63.1945C14.6545 62.3945 14.5545 61.5945 14.2545 60.7945C13.9545 59.9945 14.1545 58.8945 14.1545 57.9945C14.1545 57.1945 14.3545 56.2945 13.7545 55.5945C14.3545 54.7945 14.1545 53.8945 14.1545 53.0945C15.8545 52.5945 17.3545 52.1945 18.0545 50.5945C18.2545 50.1945 18.0545 49.5945 18.1545 49.0945C18.2545 48.6945 18.4545 48.2945 18.6545 47.8945C17.6545 47.8945 16.8545 47.8945 16.0545 47.8945C16.3545 48.1945 16.8545 48.4945 16.8545 48.6945C16.8545 50.0945 15.7545 50.7945 14.8545 51.6945C14.1545 51.6945 13.5545 51.5945 12.9545 51.5945C12.6545 50.4945 13.4545 49.9945 13.9545 49.4945C14.4545 48.9945 14.8545 48.5945 14.4545 47.6945C13.9545 47.7945 13.3545 47.9945 12.6545 48.1945C12.0545 47.2945 11.3545 47.0945 10.2545 47.6945C9.65451 47.8945 8.85451 47.8945 8.05451 48.1945ZM8.55451 38.8945C8.55451 39.6945 8.65451 40.5945 7.85451 41.0945C7.75451 41.1945 7.65451 41.4945 7.65451 41.6945C8.35451 42.9945 8.05451 44.6945 9.25451 45.8945C9.65451 45.8945 10.2545 45.9945 10.8545 45.8945C11.4545 45.7945 11.8545 46.1945 12.4545 46.2945C13.2545 46.4945 13.3545 46.0945 13.3545 45.1945C13.3545 43.6945 12.4545 42.4945 12.1545 41.0945C11.9545 39.8945 11.8545 38.8945 12.3545 37.8945C12.5545 37.5945 12.6545 37.1945 12.9545 36.6945C11.2545 37.0945 10.3545 38.6945 8.55451 38.8945ZM47.9545 35.6945C47.7545 35.4945 47.3545 35.0945 46.8545 34.5945C46.8545 33.4945 46.8545 32.1945 46.8545 30.9945C46.2545 31.0945 46.0545 30.2945 45.3545 30.7945C45.1545 30.9945 44.4545 30.5945 43.8545 30.3945C44.0545 31.0945 44.5545 31.5945 44.0545 32.1945C43.8545 32.3945 43.7545 32.8945 43.8545 33.1945C44.3545 34.5945 44.5545 36.0945 45.0545 37.4945C45.1545 37.7945 45.2545 38.0945 45.4545 38.2945C46.3545 37.4945 47.0545 36.6945 47.9545 35.6945ZM5.85451 39.8945C5.05451 39.9945 4.45451 39.9945 3.75451 40.0945C3.05451 40.1945 2.65451 40.7945 2.75451 41.4945C2.95451 41.9945 3.15451 42.3945 3.25451 42.8945C3.55451 43.8945 3.75451 44.9945 4.65451 45.7945C5.05451 46.0945 5.35451 46.6945 5.65451 47.0945C6.05451 46.8945 6.35451 46.6945 6.65451 46.5945C4.85451 44.3945 5.35451 42.1945 5.85451 39.8945ZM48.3545 30.5945C48.0545 31.9945 48.5545 33.2945 49.2545 34.3945C49.6545 34.1945 50.0545 33.9945 50.3545 33.7945C50.5545 32.7945 49.9545 31.9945 49.6545 31.0945C49.2545 30.2945 48.9545 30.5945 48.3545 30.5945Z" fill="#2E2E30"/>
<path d="M88.3563 48.2936C87.7563 48.5936 87.0563 48.3936 86.3563 48.7936C85.6563 49.1936 84.6563 48.4936 83.7563 48.7936C83.3563 48.2936 82.8563 48.4936 82.3563 48.4936C80.8563 48.2936 79.4563 48.2936 77.9563 47.9936C77.4563 47.8936 77.0563 47.2936 76.5563 47.2936C73.9563 46.9936 71.6563 45.6936 69.2563 44.9936C68.3563 44.6936 67.4563 44.2936 66.6562 43.9936C66.8563 42.5936 67.0563 42.4936 67.9563 42.3936C69.9563 42.0936 71.6563 42.8936 73.4563 43.3936C73.9563 43.4936 74.3563 43.6936 74.8563 43.6936C75.6563 43.6936 76.5563 43.5936 77.2563 44.0936C77.7563 43.6936 78.1562 44.9936 78.6562 44.0936C79.1562 44.6936 79.9563 44.2936 80.3563 44.5936C80.8563 44.9936 81.4563 44.8936 81.9563 44.9936C83.8563 45.4936 85.8563 45.5936 87.5563 46.6936C88.2563 47.0936 88.5563 47.4936 88.3563 48.2936Z" fill="#2E2E30"/>
<path d="M63.2518 10.4935C62.0518 9.69349 61.4518 11.6935 60.1518 11.2935C60.0518 10.3935 59.7518 9.59349 61.1518 8.99349C62.0518 8.59349 62.7518 7.59349 63.4518 6.79349C64.0518 6.09349 65.0518 5.89349 65.5518 4.89349C65.9518 3.99349 67.0518 3.29349 67.9518 2.89349C68.8518 2.49349 69.2518 1.39349 70.3518 1.29349C70.4518 0.293487 71.2518 0.293488 71.9518 0.493488C72.6518 0.593488 73.2518 -0.506513 74.1518 0.293487C73.8518 0.893487 73.7518 1.49349 72.9518 1.89349C72.3518 2.19349 71.7518 2.79349 71.4518 3.59349C71.0518 4.39349 70.3518 4.99349 69.4518 5.39349C68.6518 5.69349 67.7518 6.09349 67.5518 7.19349C67.5518 7.39349 67.2518 7.69349 66.9518 7.79349C65.2518 8.09349 64.4518 9.39349 63.2518 10.4935Z" fill="#2E2E30"/>
<path d="M89.6531 18.5938C89.1531 19.2937 88.8531 19.8937 88.6531 19.8937C87.4531 19.5937 86.7531 20.6937 85.8531 20.9937C85.0531 21.1937 84.3531 21.4937 83.5531 21.6937C80.7531 22.3937 77.7531 22.5937 75.1531 23.8937C72.7531 23.7937 70.5531 25.4937 67.9531 24.5938C68.0531 24.2937 68.0531 23.6937 68.2531 23.4937C68.8531 23.1937 68.7531 23.9937 68.9531 24.1937C69.4531 23.7937 69.8531 23.2938 70.3531 23.0938C71.6531 22.5938 73.1531 22.4937 74.4531 21.9937C75.7531 21.3937 77.1531 21.3938 78.3531 20.7938C80.1531 19.9938 81.9531 19.6937 83.8531 19.3937C85.2531 19.0937 86.6531 18.0937 88.2531 18.9937C88.3531 19.1937 88.8531 18.8938 89.6531 18.5938Z" fill="#2E2E30"/>
<path d="M64.3516 17.3944C64.6516 16.4944 65.1516 15.9944 65.7516 15.6944C66.7516 15.1944 67.7516 14.6944 68.7516 14.0944C70.0516 13.2944 71.4516 12.6944 72.9516 12.1944C73.5516 11.9944 74.3516 12.1944 75.1516 12.1944C75.1516 12.5944 75.1516 12.8944 75.1516 13.1944C74.3516 13.7944 73.5516 14.4944 72.6516 14.9944C71.9516 15.3944 71.1516 15.5944 70.5516 16.0944C69.9516 16.5944 69.1516 16.8944 68.4516 17.3944C67.6516 17.9944 66.6516 17.9944 65.6516 17.8944C65.2516 17.7944 64.8516 17.5944 64.3516 17.3944Z" fill="#2E2E30"/>
<path d="M81.4578 31.1935C80.8578 31.6935 80.2578 31.7935 79.5578 31.3935C79.1578 31.9935 78.7578 32.4936 78.3578 33.0936C76.4578 33.2936 74.5578 33.3936 72.7578 33.5936C72.1578 33.6936 71.5578 32.9936 70.9578 33.5936C70.9578 33.5936 70.6578 33.3936 70.4578 33.2936C70.0578 33.0936 69.6578 32.8935 69.2578 32.6935C69.4578 32.2935 69.6578 31.9936 69.7578 31.5936C69.7578 31.5936 69.9578 31.4935 70.0578 31.4935C70.7578 31.5935 71.5578 31.1935 72.0578 31.8935C72.6578 31.5935 73.2578 31.2935 73.8578 30.9935C74.1578 30.8935 74.5578 30.9935 74.9578 30.9935C75.8578 30.9935 76.8578 31.4936 77.7578 30.5936C77.9578 30.3936 78.8578 30.2936 79.3578 30.7936C79.4578 30.8936 79.8578 30.8936 80.0578 30.7936C80.7578 30.5936 80.7578 30.5935 81.4578 31.1935Z" fill="#2E2E30"/>
<path d="M65.7578 52.293C66.2578 52.393 66.8578 52.393 66.9578 52.593C67.4578 53.593 69.2578 52.793 69.1578 54.493C69.6578 54.493 70.1578 54.493 70.7578 54.493C70.7578 54.993 70.8578 55.293 70.8578 55.693C69.4578 56.293 68.5578 55.193 67.5578 54.893C67.4578 53.593 66.3578 54.293 65.7578 53.993C65.7578 53.593 65.7578 53.093 65.7578 52.293Z" fill="#2E2E30"/>
<path d="M65.2559 51.6945C65.2559 52.0945 65.2559 52.5945 65.2559 53.0945C65.1559 53.0945 64.9559 53.0945 64.9559 52.9945C64.0559 52.3945 62.7559 52.0945 63.3559 50.3945C63.9559 50.8945 64.5559 51.2945 65.2559 51.6945Z" fill="#2E2E30"/>
</svg>
