<svg width="22" height="23" viewBox="0 0 22 23" fill="none" xmlns="http://www.w3.org/2000/svg">
<path d="M21.4443 7.72431C19.7963 5.31264 18.1081 2.90098 16.4602 0.48932C16.0984 -0.0332074 15.3749 -0.193985 14.8926 0.288348C10.833 4.30779 6.77332 8.32722 2.79408 12.3869C2.31175 12.2261 1.74903 12.4271 1.62844 13.0702C1.10592 15.9642 0.583388 18.8582 0.020667 21.7521C-0.14011 22.6364 0.663778 23.2795 1.50786 22.8776C3.87933 21.7521 6.33119 20.9885 8.90363 20.5061C9.42615 20.4257 9.62712 20.0238 9.62712 19.6218C10.3908 19.7826 11.0339 18.7376 10.5918 18.0543C13.9279 14.8387 17.4248 11.8643 21.1227 9.09092C21.4845 8.76936 21.7658 8.20664 21.4443 7.72431ZM15.4151 2.53923C16.6611 4.34798 17.9474 6.19692 19.1934 8.00567C15.6161 10.7389 12.1594 13.6731 8.90363 16.8082C7.37624 15.723 5.92924 14.5975 4.52244 13.3917C8.13993 9.77422 11.7976 6.15673 15.4151 2.53923ZM3.23622 14.9593C4.7636 16.2857 6.33118 17.4915 7.97915 18.6572C6.00963 19.0591 4.0803 19.6218 2.23136 20.3855C2.59311 18.5366 2.91466 16.7278 3.23622 14.9593Z" fill="#2E2E30"/>
</svg>
