<svg width="89" height="81" viewBox="0 0 89 81" fill="none" xmlns="http://www.w3.org/2000/svg">
<path d="M24.6 9.3C25.8 8.7 27 8.4 26.8 6.7C26.4 4.3 27.1 2.1 28.5 0C30.1 0.7 30.4 2.1 30.3 3.8C30.2 6.4 30.8 8.8 31.5 11.3C31.8 12.4 31.7 13.6 31.6 14.7C31.5 17.6 32.3 20.4 33 23.2C33.4 24.9 34.8 26.3 34.5 28.2C35.7 29.2 35.4 31.3 37 31.9C38.3 32.4 38.2 34.6 40.3 34.2C41 34.1 42 35.5 43 35.9C44 36.3 44.9 37.1 46.1 36.8C47 36.6 47.7 36.9 48.2 37.6C48.9 38.7 50.2 37.8 51 38.3C51.8 38.8 52.7 39.1 53.6 39.5C54.4 39.8 55.2 40.1 56.2 40.5C55.7 41.1 55.4 42.1 55 42.1C52.6 42 50.4 44 47.9 42.4C46.8 41.7 45.5 43 44.4 43.8C40.1 46.9 37.3 51.3 35.1 56C34.6 57.1 34 58.1 33.4 59.1C32.6 60.6 32.1 62.3 31.6 63.9C31.3 64.6 31.2 65.4 30.9 66C30.4 66.9 32.1 67.3 31.2 68.4C30.8 68.9 30.9 69.9 31 70.7C31.2 71.9 30.9 73 30.2 73.9C29.2 75.2 29.6 76.5 29.6 77.8C29.6 78.8 29.3 79.5 28.2 80.1C26.3 79.4 26.1 77.4 25.5 76C24.3 73.2 23.4 70.3 23.3 67.1C23.3 66.4 23 65.5 22.5 65C21.9 64.2 22 63.9 22.3 63C22.6 62 22.4 60.5 21.8 59.6C19.9 56.6 19.3 52.9 17 50C16.2 49 15.6 48 14.3 47.7C12 44.2 8.5 44.2 4.8 44.4C3.9 44.5 2.9 44.5 2 44.4C1.3 44.3 0.7 43.8 0 43.5C0.7 41.5 1.7 40.5 3.7 40.1C7.2 39.4 10.8 38.8 13.6 36.2C13.9 35.9 14.4 35.8 14.8 35.7C17 35.2 18.2 33.2 19.8 31.9C20.9 31 21.3 29.1 21.8 27.6C22.2 26.6 22 25.3 22.6 24.4C23.9 22.5 22.5 20.1 23.9 18.3C22.6 15.3 25.6 12.4 24.6 9.3Z" fill="#2E2E30"/>
<path d="M76.9013 0.599132C77.6013 4.49913 79.4013 7.59913 82.3013 10.3991C83.0013 10.3991 84.1013 10.7991 84.7013 10.2991C86.4013 9.09913 87.6013 9.89913 89.0013 10.7991C88.5013 12.0991 87.4013 13.3991 86.3013 13.6991C84.1013 14.1991 83.2013 16.1991 81.6013 17.2991C79.3013 18.7991 78.7013 21.1991 79.1013 23.7991C78.0013 24.9991 76.9013 25.9991 75.9013 27.0991C74.8013 25.5991 74.2013 22.9991 74.1013 19.5991C72.2013 18.5991 70.8013 16.9991 68.4013 16.4991C66.5013 16.0991 64.7013 14.9991 62.6013 15.8991C62.2013 13.9991 62.4013 13.1991 63.6013 13.1991C64.9013 13.1991 65.7013 12.7991 66.6013 11.8991C67.0013 11.4991 67.9013 11.6991 69.0013 11.5991C69.9013 10.4991 71.1013 9.19913 72.0013 7.69913C72.7013 6.59913 73.2013 5.29913 73.2013 4.09913C73.2013 2.49913 75.0013 2.09913 75.1013 0.599132C75.4013 0.499132 76.2013 0.599132 76.9013 0.599132Z" fill="#2E2E30"/>
</svg>
