<svg width="18" height="20" viewBox="0 0 18 20" fill="none" xmlns="http://www.w3.org/2000/svg">
<path fill-rule="evenodd" clip-rule="evenodd" d="M2.17261 11.1738C2.02086 11.4559 1.88355 11.705 1.76068 11.9219C1.50051 12.3918 1.30921 12.7713 1.18612 13.0605C1.08503 13.3207 1.02015 13.5125 0.991265 13.6353C0.940607 13.8595 0.929943 14.0148 0.958826 14.1017V14.1341L0.980378 14.1559L0.991487 14.1777L1.02393 14.221L1.21922 14.4052C1.3492 14.5209 1.52961 14.6438 1.7609 14.774C1.9922 14.9258 2.41479 15.1571 3.0289 15.4679L4.06938 16.01L5.68442 17.3007C6.17566 17.7126 6.59847 18.0308 6.95263 18.2547C7.49431 18.5944 7.95689 18.8151 8.33971 18.9164C8.8454 19.0395 9.26821 18.9779 9.60793 18.7322C9.94009 18.4789 10.2796 18.0672 10.6266 17.496C10.7928 17.2213 10.9841 16.8672 11.201 16.4335C11.107 16.3973 10.9988 16.3502 10.8759 16.2924C10.4424 16.0611 9.91499 15.8045 9.29354 15.5223C8.36149 15.1104 7.88113 14.8971 7.85202 14.8824L6.61647 14.2428C6.37807 14.0908 6.20121 13.9788 6.08546 13.9064C5.79617 13.7186 5.64087 13.6138 5.61932 13.592C4.89678 13.057 4.3982 12.6886 4.12359 12.4858L2.17261 11.1738ZM6.18277 5.94694L6.52982 5.40482C6.78999 5.01444 6.93064 4.8047 6.95241 4.77582L7.45076 4.1035C7.60274 3.92286 7.75071 3.8902 7.89513 4.00596C7.982 4.07839 8.01799 4.16504 8.00355 4.26613C7.98911 4.33856 7.96023 4.39989 7.91668 4.45054L7.4181 5.12287C7.40388 5.13731 7.2628 5.33616 6.99551 5.71943L5.55422 7.92058C5.4098 8.14499 5.29782 8.30029 5.21828 8.38717L5.13141 8.46315C5.09519 8.41983 5.1494 8.19542 5.29382 7.79061C5.30804 7.73284 5.3767 7.5451 5.49978 7.22693L5.91171 6.4353C6.00569 6.25444 6.09612 6.0918 6.18277 5.94694ZM11.7427 4.88447C11.3454 4.55919 11.0381 4.31346 10.8215 4.14704C10.4458 3.85065 10.0954 3.60114 9.77034 3.39873C9.30065 3.11679 8.88517 2.93593 8.52413 2.85661C8.03244 2.76263 7.5883 2.82773 7.19103 3.05191C6.78622 3.27587 6.37807 3.64091 5.96614 4.14704C5.63376 4.54475 5.27249 5.06155 4.88234 5.69765C4.41287 6.49284 3.75543 7.8086 2.90981 9.64494C2.65674 10.1871 2.42567 10.6676 2.21615 11.0871L2.53054 11.174C2.53765 11.174 2.77983 11.2862 3.25663 11.5102C3.32173 11.539 3.48792 11.6332 3.75543 11.7923L5.90104 13.1803C6.73178 13.7151 7.46543 14.1128 8.10131 14.3732C8.39726 14.5103 8.87428 14.7165 9.53172 14.9911C10.1603 15.2657 10.7024 15.5261 11.1572 15.7718C11.2656 15.8372 11.3596 15.8985 11.4392 15.9562C11.4463 15.9274 11.4574 15.8985 11.4716 15.8694C11.9268 14.9007 12.2123 14.3079 12.3279 14.091C12.6169 13.5993 12.9927 13.0248 13.455 12.3669C13.7223 11.991 14.1269 11.4304 14.669 10.6861L16.0452 8.78843C16.1321 8.67267 16.2116 8.57891 16.2836 8.50626C16.1534 8.39783 16.1103 8.20986 16.1534 7.94236V7.93147C15.9008 7.59909 15.4311 7.21227 14.7446 6.77124C14.304 6.50373 13.8703 6.24711 13.4439 6.00115L12.6203 5.53479C12.4759 5.44836 12.1835 5.23151 11.7427 4.88447ZM11.2116 0.817867C10.7782 0.825199 10.3771 0.886744 10.0087 1.00228L9.05492 1.38177L8.31794 1.8048C8.18063 1.89167 8.01799 1.99988 7.83047 2.13007H7.84114C7.94245 2.11563 8.0942 2.11919 8.29639 2.14074C8.53501 2.17696 8.67965 2.20206 8.72987 2.21673C9.18534 2.34692 9.65837 2.57822 10.1498 2.91082C10.4822 3.135 10.8397 3.40962 11.2227 3.7349C11.4396 3.92286 11.7393 4.18304 12.1224 4.51564L13.6939 5.65433C14.1344 5.94339 14.5573 6.23267 14.9619 6.52195C15.5471 6.96276 15.9626 7.35313 16.2081 7.69307C16.2372 7.59175 16.2734 7.46889 16.3165 7.32447C16.3598 7.23026 16.432 7.01364 16.5333 6.6737C16.5913 6.5004 16.6382 6.29043 16.6742 6.0447C16.7104 5.68343 16.7284 5.4808 16.7284 5.43748L16.696 4.8518C16.6238 4.19415 16.3129 3.56493 15.7639 2.96481C15.3811 2.54556 14.8608 2.14074 14.2033 1.75037C13.5679 1.39599 13.0402 1.15025 12.6212 1.01294C12.1219 0.875635 11.6522 0.810758 11.2116 0.817867ZM0.0158856 14.2534C-0.0201079 14.0079 0.0049985 13.7078 0.0918717 13.3536C0.142529 13.1654 0.228958 12.9306 0.352047 12.6486C0.489133 12.3449 0.702206 11.9365 0.991487 11.4231C1.30188 10.8954 1.68136 10.1617 2.1295 9.2219C2.99646 7.40712 3.69722 6.07714 4.23179 5.23129C4.64372 4.58052 5.0412 4.0384 5.42402 3.6047C5.64798 3.34452 5.87949 3.11679 6.11767 2.92149C6.36341 2.70464 6.62714 2.52756 6.90908 2.39003C6.93064 2.38292 6.97041 2.36825 7.02817 2.3467C7.04995 2.31049 7.07528 2.27783 7.10416 2.24916C7.38611 1.93833 7.68939 1.6455 8.01466 1.37088C8.57834 0.908073 9.17445 0.55747 9.80278 0.319069C10.2147 0.159986 10.6773 0.0551165 11.1903 0.00445901C11.7684 -0.0173148 12.3319 0.0406746 12.8809 0.177983C13.343 0.29374 13.9429 0.543028 14.6799 0.926292C15.4387 1.35288 16.0454 1.80836 16.5007 2.29271C16.6236 2.41558 16.6958 2.49156 16.7175 2.52045L16.9126 2.78062C17.0208 2.9106 17.1403 3.10234 17.2703 3.35541C17.3136 3.42029 17.3643 3.52516 17.4221 3.6698L17.6931 4.52653L17.7689 5.07954V5.45903C17.776 5.56034 17.7689 5.68677 17.7473 5.83852L17.704 6.20734C17.646 6.53972 17.592 6.78923 17.5414 6.95543C17.4259 7.33869 17.3425 7.58442 17.2921 7.69285C17.2272 7.90236 17.1079 8.10477 16.9346 8.30007C16.8986 8.34317 16.8626 8.38317 16.8264 8.41938C16.8335 8.49137 16.8264 8.58557 16.8044 8.70133C16.7973 8.75199 16.7613 8.89663 16.6962 9.13503C16.6744 9.20724 16.6096 9.3701 16.5011 9.62294L15.9808 10.5879C15.8652 10.7976 15.7099 11.0325 15.5149 11.2929C14.9656 12.0518 14.561 12.6122 14.3009 12.9734C13.8456 13.6169 13.4915 14.1628 13.2388 14.6109C13.2099 14.6687 12.9318 15.2437 12.4043 16.3353C12.0428 17.08 11.7431 17.6508 11.5047 18.0485C11.2516 18.4318 11.0603 18.7026 10.9301 18.8617C10.7062 19.1439 10.4533 19.3858 10.1716 19.5885C9.86099 19.8127 9.50684 19.9462 9.10935 19.9897C8.77008 20.0188 8.4197 19.986 8.05843 19.8922C7.56697 19.7622 7.00729 19.4947 6.37829 19.0899C5.93037 18.7864 5.47512 18.4393 5.01276 18.0488C4.46353 17.5791 4.05893 17.2389 3.79854 17.0294L3.66878 16.9212L2.54143 16.3137C2.01419 16.0536 1.5696 15.8043 1.20856 15.5656C0.977267 15.4283 0.760418 15.2728 0.558232 15.0993L0.243844 14.774L0.211406 14.7307L0.103203 14.5245C0.0809849 14.4885 0.0518791 14.3981 0.0158856 14.2534Z" fill="#2E2E30"/>
</svg>
